<svg xmlns="http://www.w3.org/2000/svg" version="1.0" viewBox="0 0 85 77"><path fill="#FFBFBF" fill-opacity=".1" d="M18 2.5c0 .3.2.5.5.5s.5-.2.5-.5-.2-.5-.5-.5-.5.2-.5.5m6.1 4.1c0 1.1.3 1.4.6.6.3-.7.2-1.6-.1-1.9-.3-.4-.6.2-.5 1.3M16 11c0 .7.3 1 .7.7.3-.4.3-1 0-1.4-.4-.3-.7 0-.7.7m3 1.5c0 .3.2.5.5.5s.5-.2.5-.5-.2-.5-.5-.5-.5.2-.5.5m7 3c0 .3.2.5.5.5s.5-.2.5-.5-.2-.5-.5-.5-.5.2-.5.5m-1 3c0 .3.2.5.5.5s.5-.2.5-.5-.2-.5-.5-.5-.5.2-.5.5m-14 5c0 .3.2.5.5.5s.5-.2.5-.5-.2-.5-.5-.5-.5.2-.5.5m10 2c0 .3.2.5.5.5s.5-.2.5-.5-.2-.5-.5-.5-.5.2-.5.5"/><path fill="#BFBF80" fill-opacity=".1" d="M18 3.5c0 .3.2.5.5.5s.5-.2.5-.5-.2-.5-.5-.5-.5.2-.5.5m7 0c0 .3.2.5.5.5s.5-.2.5-.5-.2-.5-.5-.5-.5.2-.5.5m-14 4c0 .3.2.5.5.5s.5-.2.5-.5-.2-.5-.5-.5-.5.2-.5.5m1 3c0 .3.2.5.5.5s.5-.2.5-.5-.2-.5-.5-.5-.5.2-.5.5m6 4c0 .3.2.5.5.5s.5-.2.5-.5-.2-.5-.5-.5-.5.2-.5.5m-10 2c0 .3.2.5.5.5s.5-.2.5-.5-.2-.5-.5-.5-.5.2-.5.5m16 4c0 .3.2.5.5.5s.5-.2.5-.5-.2-.5-.5-.5-.5.2-.5.5m-19 3c0 .3.2.5.5.5s.5-.2.5-.5-.2-.5-.5-.5-.5.2-.5.5m8 4c0 .3.2.5.5.5s.5-.2.5-.5-.2-.5-.5-.5-.5.2-.5.5m4 1c0 .3.2.5.5.5s.5-.2.5-.5-.2-.5-.5-.5-.5.2-.5.5m-11 4c0 .3.2.5.5.5s.5-.2.5-.5-.2-.5-.5-.5-.5.2-.5.5"/><path fill="#BF8080" fill-opacity=".4" d="M18 4.5c0 .3.2.5.5.5s.5-.2.5-.5-.2-.5-.5-.5-.5.2-.5.5m7 0c0 .3.2.5.5.5s.5-.2.5-.5-.2-.5-.5-.5-.5.2-.5.5m1 9c0 .3.2.5.5.5s.5-.2.5-.5-.2-.5-.5-.5-.5.2-.5.5"/><path fill="#FFBF80" fill-opacity=".2" d="M19 4.5c0 .3.2.5.5.5s.5-.2.5-.5-.2-.5-.5-.5-.5.2-.5.5M24 9c0 .7.3 1 .7.7.3-.4.3-1 0-1.4-.4-.3-.7 0-.7.7M4 16.5c0 .3.2.5.5.5s.5-.2.5-.5-.2-.5-.5-.5-.5.2-.5.5m17 2c0 .3.2.5.5.5s.5-.2.5-.5-.2-.5-.5-.5-.5.2-.5.5m-3 4c0 .3.2.5.5.5s.5-.2.5-.5-.2-.5-.5-.5-.5.2-.5.5m5 0c0 .3.2.5.5.5s.5-.2.5-.5-.2-.5-.5-.5-.5.2-.5.5m-18 3c0 .3.2.5.5.5s.5-.2.5-.5-.2-.5-.5-.5-.5.2-.5.5m9 1c0 .3.2.5.5.5s.5-.2.5-.5-.2-.5-.5-.5-.5.2-.5.5m-3 2c0 .3.2.5.5.5s.5-.2.5-.5-.2-.5-.5-.5-.5.2-.5.5m5 1c0 .3.2.5.5.5s.5-.2.5-.5-.2-.5-.5-.5-.5.2-.5.5m-10 1c0 .3.2.5.5.5s.5-.2.5-.5-.2-.5-.5-.5-.5.2-.5.5m6 1c0 .3.2.5.5.5s.5-.2.5-.5-.2-.5-.5-.5-.5.2-.5.5"/><path fill="#FFBF80" fill-opacity=".1" d="M24 4.5c0 .3.2.5.5.5s.5-.2.5-.5-.2-.5-.5-.5-.5.2-.5.5m-7 13c0 .3.2.5.5.5s.5-.2.5-.5-.2-.5-.5-.5-.5.2-.5.5m-11 5c0 .3.2.5.5.5s.5-.2.5-.5-.2-.5-.5-.5-.5.2-.5.5m10 2c0 .3.2.5.5.5s.5-.2.5-.5-.2-.5-.5-.5-.5.2-.5.5m-10 1c0 .3.2.5.5.5s.5-.2.5-.5-.2-.5-.5-.5-.5.2-.5.5m13 2c0 .3.2.5.5.5s.5-.2.5-.5-.2-.5-.5-.5-.5.2-.5.5"/><path fill="#BFBFBF" fill-opacity=".1" d="M38 4.5c0 .3.2.5.5.5s.5-.2.5-.5-.2-.5-.5-.5-.5.2-.5.5m-26 2c0 .3.2.5.5.5s.5-.2.5-.5-.2-.5-.5-.5-.5.2-.5.5m10.4 22.7c-.4.7-.3.8.4.4 1.2-.7 1.6-1.6.8-1.6-.3 0-.8.5-1.2 1.2"/><path fill="gray" fill-opacity=".3" d="M39 4.5c0 .3.2.5.5.5s.5-.2.5-.5-.2-.5-.5-.5-.5.2-.5.5m20 2c0 .3.2.5.5.5s.5-.2.5-.5-.2-.5-.5-.5-.5.2-.5.5m6 3c0 .3.2.5.5.5s.5-.2.5-.5-.2-.5-.5-.5-.5.2-.5.5m5 3.9c0 .2.8 1 1.8 1.7 1.5 1.3 1.6 1.2.3-.4S70 12.6 70 13.4m-42 8.1c0 .3.2.5.5.5s.5-.2.5-.5-.2-.5-.5-.5-.5.2-.5.5m-1 2c0 .3.2.5.5.5s.5-.2.5-.5-.2-.5-.5-.5-.5.2-.5.5m-2 3c0 .3.2.5.5.5s.5-.2.5-.5-.2-.5-.5-.5-.5.2-.5.5m55 4c0 .3.2.5.5.5s.5-.2.5-.5-.2-.5-.5-.5-.5.2-.5.5m1.2 8.5c0 1.9.2 2.7.5 1.7.2-.9.2-2.5 0-3.5-.3-.9-.5-.1-.5 1.8M11 44.5c0 .3.2.5.5.5s.5-.2.5-.5-.2-.5-.5-.5-.5.2-.5.5m3 10c0 .3.2.5.5.5s.5-.2.5-.5-.2-.5-.5-.5-.5.2-.5.5m62 3c0 .3.2.5.5.5s.5-.2.5-.5-.2-.5-.5-.5-.5.2-.5.5m-2 3c0 .3.2.5.5.5s.5-.2.5-.5-.2-.5-.5-.5-.5.2-.5.5m-7 7c0 .3.2.5.5.5s.5-.2.5-.5-.2-.5-.5-.5-.5.2-.5.5m-3 2c0 .3.2.5.5.5s.5-.2.5-.5-.2-.5-.5-.5-.5.2-.5.5m-27 4c0 .3.2.5.5.5s.5-.2.5-.5-.2-.5-.5-.5-.5.2-.5.5m6.3 1.2c.4.3 1 .3 1.4 0 .3-.4 0-.7-.7-.7s-1 .3-.7.7m5 0c.4.3 1 .3 1.4 0 .3-.4 0-.7-.7-.7s-1 .3-.7.7"/><path fill="#404040" fill-opacity=".4" d="M40 4.5c0 .3.2.5.5.5s.5-.2.5-.5-.2-.5-.5-.5-.5.2-.5.5m23 4c0 .3.2.5.5.5s.5-.2.5-.5-.2-.5-.5-.5-.5.2-.5.5m-52 35c0 .3.2.5.5.5s.5-.2.5-.5-.2-.5-.5-.5-.5.2-.5.5m69 4c0 .3.2.5.5.5s.5-.2.5-.5-.2-.5-.5-.5-.5.2-.5.5m-18 23c0 .3.2.5.5.5s.5-.2.5-.5-.2-.5-.5-.5-.5.2-.5.5m-2 1c0 .3.2.5.5.5s.5-.2.5-.5-.2-.5-.5-.5-.5.2-.5.5m-6 2c0 .3.2.5.5.5s.5-.2.5-.5-.2-.5-.5-.5-.5.2-.5.5m-8.7 1.2c.4.3 1 .3 1.4 0 .3-.4 0-.7-.7-.7s-1 .3-.7.7"/><path fill="#404040" fill-opacity=".5" d="M41 4.5c0 .3.2.5.5.5s.5-.2.5-.5-.2-.5-.5-.5-.5.2-.5.5m10 0c0 .3.2.5.5.5s.5-.2.5-.5-.2-.5-.5-.5-.5.2-.5.5m-15 1c0 .3.2.5.5.5s.5-.2.5-.5-.2-.5-.5-.5-.5.2-.5.5m-3 1c0 .3.2.5.5.5s.5-.2.5-.5-.2-.5-.5-.5-.5.2-.5.5m28 1c0 .3.2.5.5.5s.5-.2.5-.5-.2-.5-.5-.5-.5.2-.5.5m-30 1c0 .3.2.5.5.5s.5-.2.5-.5-.2-.5-.5-.5-.5.2-.5.5m0 2.5c0 .7.3 1 .7.7.3-.4.3-1 0-1.4-.4-.3-.7 0-.7.7m35-.5c0 .3.2.5.5.5s.5-.2.5-.5-.2-.5-.5-.5-.5.2-.5.5m-37 9c0 .3.2.5.5.5s.5-.2.5-.5-.2-.5-.5-.5-.5.2-.5.5m-3 6c0 .3.2.5.5.5s.5-.2.5-.5-.2-.5-.5-.5-.5.2-.5.5m54 6c0 .3.2.5.5.5s.5-.2.5-.5-.2-.5-.5-.5-.5.2-.5.5m-69 11c0 .3.2.5.5.5s.5-.2.5-.5-.2-.5-.5-.5-.5.2-.5.5m1 6c0 .3.2.5.5.5s.5-.2.5-.5-.2-.5-.5-.5-.5.2-.5.5m67 2c0 .3.2.5.5.5s.5-.2.5-.5-.2-.5-.5-.5-.5.2-.5.5m-66 1c0 .3.2.5.5.5s.5-.2.5-.5-.2-.5-.5-.5-.5.2-.5.5m64 4c0 .3.2.5.5.5s.5-.2.5-.5-.2-.5-.5-.5-.5.2-.5.5m-4 6c0 .3.2.5.5.5s.5-.2.5-.5-.2-.5-.5-.5-.5.2-.5.5m-5 5c0 .3.2.5.5.5s.5-.2.5-.5-.2-.5-.5-.5-.5.2-.5.5m-43 1c0 .3.2.5.5.5s.5-.2.5-.5-.2-.5-.5-.5-.5.2-.5.5m3 2c0 .3.2.5.5.5s.5-.2.5-.5-.2-.5-.5-.5-.5.2-.5.5m4 2c0 .3.2.5.5.5s.5-.2.5-.5-.2-.5-.5-.5-.5.2-.5.5m6 2c0 .3.2.5.5.5s.5-.2.5-.5-.2-.5-.5-.5-.5.2-.5.5"/><path fill="#404040" fill-opacity=".6" d="M42 4.5c0 .3.2.5.5.5s.5-.2.5-.5-.2-.5-.5-.5-.5.2-.5.5m7.3.2c.4.3 1 .3 1.4 0 .3-.4 0-.7-.7-.7s-1 .3-.7.7m5.7.8c0 .3.2.5.5.5s.5-.2.5-.5-.2-.5-.5-.5-.5.2-.5.5m3 1c0 .3.2.5.5.5s.5-.2.5-.5-.2-.5-.5-.5-.5.2-.5.5M31 14c0 .7.3 1 .7.7.3-.4.3-1 0-1.4-.4-.3-.7 0-.7.7m43 4.5c0 .3.2.5.5.5s.5-.2.5-.5-.2-.5-.5-.5-.5.2-.5.5m2 3c0 .3.2.5.5.5s.5-.2.5-.5-.2-.5-.5-.5-.5.2-.5.5m1 2c0 .3.2.5.5.5s.5-.2.5-.5-.2-.5-.5-.5-.5.2-.5.5m1 2c0 .3.2.5.5.5s.5-.2.5-.5-.2-.5-.5-.5-.5.2-.5.5m1 3c0 .3.2.5.5.5s.5-.2.5-.5-.2-.5-.5-.5-.5.2-.5.5m1 4c0 .3.2.5.5.5s.5-.2.5-.5-.2-.5-.5-.5-.5.2-.5.5m-62 1c0 .3.2.5.5.5s.5-.2.5-.5-.2-.5-.5-.5-.5.2-.5.5m-6 3c0 .3.2.5.5.5s.5-.2.5-.5-.2-.5-.5-.5-.5.2-.5.5m-.8 3.5c0 1.4.2 1.9.5 1.2.2-.6.2-1.8 0-2.5-.3-.6-.5-.1-.5 1.3M80 46.5c0 .3.2.5.5.5s.5-.2.5-.5-.2-.5-.5-.5-.5.2-.5.5m-68 1c0 .3.2.5.5.5s.5-.2.5-.5-.2-.5-.5-.5-.5.2-.5.5m4 10c0 .3.2.5.5.5s.5-.2.5-.5-.2-.5-.5-.5-.5.2-.5.5m59 1c0 .3.2.5.5.5s.5-.2.5-.5-.2-.5-.5-.5-.5.2-.5.5M18.5 61c.3.5.8 1 1.1 1s.2-.5-.1-1c-.3-.6-.8-1-1.1-1s-.2.4.1 1M72 62.5c0 .3.2.5.5.5s.5-.2.5-.5-.2-.5-.5-.5-.5.2-.5.5m-2.6 2.7c-.4.7-.3.8.4.4s1.2-.9 1.2-1.2c0-.8-.9-.4-1.6.8M65 68.5c0 .3.2.5.5.5s.5-.2.5-.5-.2-.5-.5-.5-.5.2-.5.5m-35 2c0 .3.2.5.5.5s.5-.2.5-.5-.2-.5-.5-.5-.5.2-.5.5m5 2c0 .3.2.5.5.5s.5-.2.5-.5-.2-.5-.5-.5-.5.2-.5.5m22 0c0 .3.2.5.5.5s.5-.2.5-.5-.2-.5-.5-.5-.5.2-.5.5m-18 1c0 .3.2.5.5.5s.5-.2.5-.5-.2-.5-.5-.5-.5.2-.5.5m14 0c0 .3.2.5.5.5s.5-.2.5-.5-.2-.5-.5-.5-.5.2-.5.5"/><path fill="#404040" fill-opacity=".7" d="M43 4.5c0 .3.2.5.5.5s.5-.2.5-.5-.2-.5-.5-.5-.5.2-.5.5m5 0c0 .3.2.5.5.5s.5-.2.5-.5-.2-.5-.5-.5-.5.2-.5.5m-11 1c0 .3.2.5.5.5s.5-.2.5-.5-.2-.5-.5-.5-.5.2-.5.5m30 6c0 .3.2.5.5.5s.5-.2.5-.5-.2-.5-.5-.5-.5.2-.5.5m-37 6c0 .3.2.5.5.5s.5-.2.5-.5-.2-.5-.5-.5-.5.2-.5.5m-1 3c0 .3.2.5.5.5s.5-.2.5-.5-.2-.5-.5-.5-.5.2-.5.5m46 0c0 .3.2.5.5.5s.5-.2.5-.5-.2-.5-.5-.5-.5.2-.5.5m-64 17c0 .3.2.5.5.5s.5-.2.5-.5-.2-.5-.5-.5-.5.2-.5.5m69 8c0 .3.2.5.5.5s.5-.2.5-.5-.2-.5-.5-.5-.5.2-.5.5m-67 5c0 .3.2.5.5.5s.5-.2.5-.5-.2-.5-.5-.5-.5.2-.5.5m65 2c0 .3.2.5.5.5s.5-.2.5-.5-.2-.5-.5-.5-.5.2-.5.5m-64 1c0 .3.2.5.5.5s.5-.2.5-.5-.2-.5-.5-.5-.5.2-.5.5m1 2c0 .3.2.5.5.5s.5-.2.5-.5-.2-.5-.5-.5-.5.2-.5.5m57 6c0 .3.2.5.5.5s.5-.2.5-.5-.2-.5-.5-.5-.5.2-.5.5m-1 2c0 .3.2.5.5.5s.5-.2.5-.5-.2-.5-.5-.5-.5.2-.5.5m-3 2c0 .3.2.5.5.5s.5-.2.5-.5-.2-.5-.5-.5-.5.2-.5.5m-44 1c0 .3.2.5.5.5s.5-.2.5-.5-.2-.5-.5-.5-.5.2-.5.5m35 5c0 .3.2.5.5.5s.5-.2.5-.5-.2-.5-.5-.5-.5.2-.5.5m-3 1c0 .3.2.5.5.5s.5-.2.5-.5-.2-.5-.5-.5-.5.2-.5.5"/><path fill-opacity=".7" d="M44.8 4.7c.6.2 1.8.2 2.5 0 .6-.3.1-.5-1.3-.5s-1.9.2-1.2.5m-6.8.8c0 .3.2.5.5.5s.5-.2.5-.5-.2-.5-.5-.5-.5.2-.5.5m16 0c0 .3.2.5.5.5s.5-.2.5-.5-.2-.5-.5-.5-.5.2-.5.5m3 1c0 .3.2.5.5.5s.5-.2.5-.5-.2-.5-.5-.5-.5.2-.5.5m3 1c0 .3.2.5.5.5s.5-.2.5-.5-.2-.5-.5-.5-.5.2-.5.5m2 .9c0 .3.9 1 2 1.6s2 .8 2 .6c0-.3-.9-1-2-1.6s-2-.8-2-.6m8.5 6.6c1 1.1 2 2 2.3 2s-.3-.9-1.3-2-2-2-2.3-2 .3.9 1.3 2m3.5 4.5c0 .3.2.5.5.5s.5-.2.5-.5-.2-.5-.5-.5-.5.2-.5.5m2 3c0 .3.2.5.5.5s.5-.2.5-.5-.2-.5-.5-.5-.5.2-.5.5m1 2c0 .3.2.5.5.5s.5-.2.5-.5-.2-.5-.5-.5-.5.2-.5.5m1 2c0 .3.2.5.5.5s.5-.2.5-.5-.2-.5-.5-.5-.5.2-.5.5m-53 1c0 .3.2.5.5.5s.5-.2.5-.5-.2-.5-.5-.5-.5.2-.5.5m-4.1 4.2c-1.3 1.6-1.2 1.7.4.4.9-.7 1.7-1.5 1.7-1.7 0-.8-.8-.3-2.1 1.3M80 34c0 .7.3 1 .7.7.3-.4.3-1 0-1.4-.4-.3-.7 0-.7.7m-67 2.5c0 .3.2.5.5.5s.5-.2.5-.5-.2-.5-.5-.5-.5.2-.5.5m-1 10c0 .3.2.5.5.5s.5-.2.5-.5-.2-.5-.5-.5-.5.2-.5.5M79 49c0 .7.3 1 .7.7.3-.4.3-1 0-1.4-.4-.3-.7 0-.7.7m-66 .5c0 .3.2.5.5.5s.5-.2.5-.5-.2-.5-.5-.5-.5.2-.5.5m1 3c0 .3.2.5.5.5s.5-.2.5-.5-.2-.5-.5-.5-.5.2-.5.5m1 2c0 .3.2.5.5.5s.5-.2.5-.5-.2-.5-.5-.5-.5.2-.5.5m1 2c0 .3.2.5.5.5s.5-.2.5-.5-.2-.5-.5-.5-.5.2-.5.5m59.4.7c-.4.7-.3.8.4.4s1.2-.9 1.2-1.2c0-.8-.9-.4-1.6.8M17.5 59c.3.5.8 1 1.1 1s.2-.5-.1-1c-.3-.6-.8-1-1.1-1s-.2.4.1 1m56.5.5c0 .3.2.5.5.5s.5-.2.5-.5-.2-.5-.5-.5-.5.2-.5.5M21.5 64c1 1.1 2 2 2.3 2s-.3-.9-1.3-2-2-2-2.3-2 .3.9 1.3 2m48.4-.3c-1.3 1.6-1.2 1.7.4.4s2.1-2.1 1.3-2.1c-.2 0-1 .8-1.7 1.7M25 66.5c0 .3.2.5.5.5s.5-.2.5-.5-.2-.5-.5-.5-.5.2-.5.5m41 1c0 .3.2.5.5.5s.5-.2.5-.5-.2-.5-.5-.5-.5.2-.5.5m-39 1c0 .3.2.5.5.5s.5-.2.5-.5-.2-.5-.5-.5-.5.2-.5.5m37 0c0 .3.2.5.5.5s.5-.2.5-.5-.2-.5-.5-.5-.5.2-.5.5m-35 1c0 .3.2.5.5.5s.5-.2.5-.5-.2-.5-.5-.5-.5.2-.5.5m2 1c0 .3.2.5.5.5s.5-.2.5-.5-.2-.5-.5-.5-.5.2-.5.5m30 0c0 .3.2.5.5.5s.5-.2.5-.5-.2-.5-.5-.5-.5.2-.5.5m-28 1c0 .3.2.5.5.5s.5-.2.5-.5-.2-.5-.5-.5-.5.2-.5.5m3 1c0 .3.2.5.5.5s.5-.2.5-.5-.2-.5-.5-.5-.5.2-.5.5m15.3 1.2c.4.3 1 .3 1.4 0 .3-.4 0-.7-.7-.7s-1 .3-.7.7"/><path fill="gray" fill-opacity=".4" d="M52 4.5c0 .3.2.5.5.5s.5-.2.5-.5-.2-.5-.5-.5-.5.2-.5.5m4 1c0 .3.2.5.5.5s.5-.2.5-.5-.2-.5-.5-.5-.5.2-.5.5m-26 11c0 .3.2.5.5.5s.5-.2.5-.5-.2-.5-.5-.5-.5.2-.5.5m45 3c0 .3.2.5.5.5s.5-.2.5-.5-.2-.5-.5-.5-.5.2-.5.5m4 8c0 .3.2.5.5.5s.5-.2.5-.5-.2-.5-.5-.5-.5.2-.5.5m-60 5c0 .3.2.5.5.5s.5-.2.5-.5-.2-.5-.5-.5-.5.2-.5.5m-5 3c0 .3.2.5.5.5s.5-.2.5-.5-.2-.5-.5-.5-.5.2-.5.5m3 24c0 .3.2.5.5.5s.5-.2.5-.5-.2-.5-.5-.5-.5.2-.5.5m17 13c0 .3.2.5.5.5s.5-.2.5-.5-.2-.5-.5-.5-.5.2-.5.5m13 2c0 .3.2.5.5.5s.5-.2.5-.5-.2-.5-.5-.5-.5.2-.5.5"/><path fill="gray" fill-opacity=".2" d="M53 4.5c0 .3.2.5.5.5s.5-.2.5-.5-.2-.5-.5-.5-.5.2-.5.5m-18 1c0 .3.2.5.5.5s.5-.2.5-.5-.2-.5-.5-.5-.5.2-.5.5m34 7c0 .3.2.5.5.5s.5-.2.5-.5-.2-.5-.5-.5-.5.2-.5.5m-39 3c0 .3.2.5.5.5s.5-.2.5-.5-.2-.5-.5-.5-.5.2-.5.5m43 1c0 .3.2.5.5.5s.5-.2.5-.5-.2-.5-.5-.5-.5.2-.5.5m4 6c0 .3.2.5.5.5s.5-.2.5-.5-.2-.5-.5-.5-.5.2-.5.5m1 2c0 .3.2.5.5.5s.5-.2.5-.5-.2-.5-.5-.5-.5.2-.5.5m3 11c0 .3.2.5.5.5s.5-.2.5-.5-.2-.5-.5-.5-.5.2-.5.5m-70 1c0 .3.2.5.5.5s.5-.2.5-.5-.2-.5-.5-.5-.5.2-.5.5m70 6c0 .3.2.5.5.5s.5-.2.5-.5-.2-.5-.5-.5-.5.2-.5.5m-70 3c0 .3.2.5.5.5s.5-.2.5-.5-.2-.5-.5-.5-.5.2-.5.5m69 3c0 .3.2.5.5.5s.5-.2.5-.5-.2-.5-.5-.5-.5.2-.5.5m-68 1c0 .3.2.5.5.5s.5-.2.5-.5-.2-.5-.5-.5-.5.2-.5.5m67 2c0 .3.2.5.5.5s.5-.2.5-.5-.2-.5-.5-.5-.5.2-.5.5m-64 5c0 .3.2.5.5.5s.5-.2.5-.5-.2-.5-.5-.5-.5.2-.5.5m5.5 7.5c.3.5.8 1 1.1 1s.2-.5-.1-1c-.3-.6-.8-1-1.1-1s-.2.4.1 1m5.5 4.5c0 .3.2.5.5.5s.5-.2.5-.5-.2-.5-.5-.5-.5.2-.5.5m32 4c0 .3.2.5.5.5s.5-.2.5-.5-.2-.5-.5-.5-.5.2-.5.5m-3 1c0 .3.2.5.5.5s.5-.2.5-.5-.2-.5-.5-.5-.5.2-.5.5m-13 1c0 .3.2.5.5.5s.5-.2.5-.5-.2-.5-.5-.5-.5.2-.5.5m8 0c0 .3.2.5.5.5s.5-.2.5-.5-.2-.5-.5-.5-.5.2-.5.5"/><path fill="#BF8040" fill-opacity=".5" d="M18 5.5c0 .3.2.5.5.5s.5-.2.5-.5-.2-.5-.5-.5-.5.2-.5.5m0 8c0 .3.2.5.5.5s.5-.2.5-.5-.2-.5-.5-.5-.5.2-.5.5m-3 2c0 .3.2.5.5.5s.5-.2.5-.5-.2-.5-.5-.5-.5.2-.5.5M4.5 17c-.3.5-.1 1 .4 1 .6 0 1.1-.5 1.1-1 0-.6-.2-1-.4-1-.3 0-.8.4-1.1 1M21 19.5c0 .3.2.5.5.5s.5-.2.5-.5-.2-.5-.5-.5-.5.2-.5.5m-3 4c0 .3.2.5.5.5s.5-.2.5-.5-.2-.5-.5-.5-.5.2-.5.5m-2 2c0 .3.2.5.5.5s.5-.2.5-.5-.2-.5-.5-.5-.5.2-.5.5m3 1c0 .3.2.5.5.5s.5-.2.5-.5-.2-.5-.5-.5-.5.2-.5.5"/><path fill="#FFBF80" fill-opacity=".3" d="M19 5.5c0 .3.2.5.5.5s.5-.2.5-.5-.2-.5-.5-.5-.5.2-.5.5m-9 5c0 .3.2.5.5.5s.5-.2.5-.5-.2-.5-.5-.5-.5.2-.5.5m5 4c0 .3.2.5.5.5s.5-.2.5-.5-.2-.5-.5-.5-.5.2-.5.5m8 0c0 .3.2.5.5.5s.5-.2.5-.5-.2-.5-.5-.5-.5.2-.5.5m-16 3c0 .3.2.5.5.5s.5-.2.5-.5-.2-.5-.5-.5-.5.2-.5.5m5 1c0 .3.2.5.5.5s.5-.2.5-.5-.2-.5-.5-.5-.5.2-.5.5m-10 7c0 .3.2.5.5.5s.5-.2.5-.5-.2-.5-.5-.5-.5.2-.5.5m2 0c0 .3.2.5.5.5s.5-.2.5-.5-.2-.5-.5-.5-.5.2-.5.5"/><path fill="#BF8040" d="M25.1 6c0 .8.4 2.4.9 3.5.5 1.3.9 1.4.9.5 0-.8-.4-2.4-.9-3.5-.5-1.3-.9-1.4-.9-.5m-7.6 6c.3.5.8 1 1.1 1s.2-.5-.1-1c-.3-.6-.8-1-1.1-1s-.2.4.1 1M6 24c0 .7.3 1 .7.7.3-.4.3-1 0-1.4-.4-.3-.7 0-.7.7m6 6.5c0 .3.2.5.5.5s.5-.2.5-.5-.2-.5-.5-.5-.5.2-.5.5m-6 1c0 .3.2.5.5.5s.5-.2.5-.5-.2-.5-.5-.5-.5.2-.5.5"/><g stroke-width="0"><path d="M37.3 5.7c-2.1.4-5.3 3.7-5.3 5.5 0 .5 1.3.2 3-.7 1.6-.8 4-1.3 5.2-1.1 6.8 1.4 9.2 1.6 8.3.7-.6-.5-2.6-1.1-4.5-1.4l-3.5-.4 3.6-.1c2.2-.1 4.2.4 4.9 1.3.7.8.9 1.5.5 1.5s-.2.7.5 1.5c1.5 1.9 6.5 2.1 5.4.2-.4-.7-.3-.8.2-.4.5.5.9 1.4 1 2 0 .7.2 2 .2 2.9.2 2 3.2 3.1 5.6 2.2 1.4-.5 1.5-.9.4-1.5-.9-.6-.9-.9-.1-.9 2 0 2.5 1.8.8 2.8-1.3.7-.9 1.3 2.4 3.5 4.3 2.9 5.6 3.3 4.6 1.7-.3-.6-.1-1 .4-1 1.6 0 1.4.4-1.9 6.7-1.6 3.1-3 6.4-3 7.4 0 2.1-1 2.8-4.4 3.1-1.4.1-2.6.6-2.6 1s-1.3 2.3-3 4.1c-3.2 3.6-4 5.8-1.5 3.7 2.3-1.9 1.8-.3-.7 2.2-1.6 1.6-2 1.7-1.5.5.4-1.2.1-1.7-1-1.7-.9 0-1.4.3-1 .6.3.3-.6 1.6-2 2.8-1.5 1.3-2.7 3.5-2.8 5.2-.1 1.6-.4 3.4-.6 4-.2.7.1 1.2.6 1.2.6 0 .9-.4.8-.8-.3-1 2.4-.7 3.4.5.4.4.3.5-.3.2-1.6-.9-3.8 1.9-3.1 3.8.4.8.1 1.7-.5 2.1-.7.4-.8.3-.4-.4s.1-1.2-.7-1.2-2-.7-2.7-1.5-1.6-1.3-2-1-1.4-.3-2.1-1.3c-1.3-1.5-1.2-1.6.4-.3s2.5.2 1-1.3c-.4-.4-.8-6.6-1-13.9-.2-12.6-.3-13.3-2.6-15.2-1.4-1.1-3.5-4-4.7-6.3-1.2-2.4-2.4-4.2-2.6-3.9-.3.3.2 1.9 1.1 3.6.9 1.8 1.3 3.7.9 4.3-.4.7-.3.8.4.4.8-.5 1.2.2 1.2 2 0 2.2.3 2.4 1.4 1.5s1.6-.9 2.2 0c.4.7.3.9-.4.5-.6-.3-1.3-.2-1.6.2-.3.5-1.5.8-2.8.6-1.3-.1-2.6-.3-3-.3-.5-.1-.8-.6-.8-1.2 0-.8.5-.8 1.5.1.8.7 1.5.8 1.5.2 0-.5-.7-1.5-1.5-2.2-1.3-1.1-1.3-1.5-.3-2.1 1-.7 1-1.1-.1-2.1-.8-.7-1.1-.8-.8-.3.3.6-.4 1.2-1.6 1.2-1.7.2-1.8 0-.7-.7.8-.5 1.2-1.1.9-1.4-.9-.9-6 5-6.2 7.1-.1 2.1-1.2 2.4-3.4 1-.6-.4-1.9-.4-2.8 0-3.2 1.2-.1 15.8 4.7 21.9 2.9 3.8 10.1 10.3 10.8 9.9.4-.3 1.3.2 2 1s1.9 1.5 2.6 1.5c.8 0 2.3.6 3.4 1.2 1.6 1 2.4 1 4.3-.1 2.1-1.3 2.1-1.3.7.4s-1.2 1.8 5.8 1.2c4.1-.3 8-1.1 8.8-1.8.8-.6 1.4-.9 1.4-.5s1.4-.1 3.1-1c2.5-1.2 2.9-1.8 1.8-2.5-1-.7-.7-.8 1.1-.7 1.6.2 2.4-.2 2.2-1-.1-.6.1-1.1.6-1 1.1.4 8.2-6.4 8.2-7.9 0-.7.5-1.3 1.1-1.3s.8-.7.5-1.6c-.3-.8-.2-1.2.4-.9s1-.3 1-1.3c0-1.1.7-3.7 1.6-5.8 1.2-2.8 1.4-5.4 1-9.6-.8-7-2.5-12-3.7-11.2-.5.3-.6-.1-.4-.8.3-.8-.1-2.2-.9-3.3-1-1.5-1.7-1.7-2.7-.8-1.6 1.3-6.7 1.4-7.4.2-.3-.4 0-1.1.6-1.5.8-.4.9-.3.5.4s-.3 1.2.2 1.2c2 0 2.1-1.5.1-3.6-1.9-2.1-2-2.2-.3-2 1.1.2 1.9.8 1.9 1.4 0 1.6 1.5 2.7 1.5 1.1.1-1 .4-.9 1.1.4.6.9 1.4 1.5 1.9 1.2 1.1-.7-4.1-6.2-8.7-9.4-1.8-1.2-3.8-1.9-4.4-1.5q-1.05.6-.6-.3c.8-1.3-3.9-2.7-5.5-1.7-.7.4-.8.3-.4-.4.5-.9-1.3-1.2-6.6-1.1-4 .1-8.3.4-9.5.6m6.7.8c0 .3-.2.5-.5.5s-.5-.2-.5-.5.2-.5.5-.5.5.2.5.5m4 0c0 .3-.2.5-.5.5s-.5-.2-.5-.5.2-.5.5-.5.5.2.5.5m-10 .9c0 .2-.7.7-1.6 1-.8.3-1.2.2-.9-.4.6-1 2.5-1.4 2.5-.6m16 1.1c0 .2-.6.5-1.3.8-.8.3-1.4-.1-1.4-.8s.6-1.1 1.4-.8c.7.3 1.3.6 1.3.8m2 1c0 .3-.2.5-.5.5s-.5-.2-.5-.5.2-.5.5-.5.5.2.5.5m-2.7 2.6c-.8.8-1.3.7-1.8-.2-.5-.8-.4-1 .3-.5.7.4 1.2.2 1.2-.5s.3-.9.7-.6c.4.4.2 1.2-.4 1.8m4.7-1.6c0 .3-.2.5-.5.5s-.5-.2-.5-.5.2-.5.5-.5.5.2.5.5m2 0c0 .3-.2.5-.5.5s-.5-.2-.5-.5.2-.5.5-.5.5.2.5.5m1.3 3c-.3.9-.8 1.4-1 1.1-.3-.3-.2-.9.2-1.5.9-1.6 1.5-1.3.8.4m3.7-1.1c0 .3-.5.8-1.2 1.2s-.8.3-.4-.4c.7-1.2 1.6-1.6 1.6-.8m2 1.1c0 .3-.2.5-.5.5s-.5-.2-.5-.5.2-.5.5-.5.5.2.5.5m-6 2.9c0 .2-.7.7-1.6 1-.8.3-1.2.2-.9-.4.6-1 2.5-1.4 2.5-.6m13 7.1c0 .3-.2.5-.5.5s-.5-.2-.5-.5.2-.5.5-.5.5.2.5.5m1 1.9c0 .3-.5.8-1.2 1.2s-.8.3-.4-.4c.7-1.2 1.6-1.6 1.6-.8m2.5 2.5c-.9.8-3.6 1-3 .2.2-.4 1.1-.8 2-.8.8 0 1.3.3 1 .6m-6.4 3c-.6 1-.8 2-.6 2.3.3.3-.1.5-.9.5-1.2 0-1.2-.4.1-2.4 1.8-2.8 2.8-3.1 1.4-.4m-45.3 4.3c.2 2.2-.2 2.8-1.7 2.8-2.3 0-3.6-1.6-2.2-2.5.6-.3.8-1.2.5-2-.4-.9.1-1.3 1.3-1.2 1.3.1 2 1 2.1 2.9m47.6.4c-.1 1.4-.5 2.8-.8 3.1-.4.4-.2-4.5.3-5.5s.8.3.5 2.4m5.6-1.1c0 .3-.2.5-.5.5s-.5-.2-.5-.5.2-.5.5-.5.5.2.5.5M70.5 36c.3.5.4 1 .1 1s-.8-.5-1.1-1c-.3-.6-.4-1-.1-1s.8.4 1.1 1M16 37.5c0 .3-.2.5-.5.5s-.5-.2-.5-.5.2-.5.5-.5.5.2.5.5m64-.1c0 .3-.5.8-1.2 1.2s-.8.3-.4-.4c.7-1.2 1.6-1.6 1.6-.8m-12.3 2.3c-.4.3-.7 0-.7-.7s.3-1 .7-.7c.3.4.3 1 0 1.4m9.3.8c0 .3-.2.5-.5.5s-.5-.2-.5-.5.2-.5.5-.5.5.2.5.5m-10.3 2.2c-.4.3-.7 0-.7-.7s.3-1 .7-.7c.3.4.3 1 0 1.4M14 42.5c0 .3-.2.5-.5.5s-.5-.2-.5-.5.2-.5.5-.5.5.2.5.5m2.7 1.2c-.4.3-.7 0-.7-.7s.3-1 .7-.7c.3.4.3 1 0 1.4M65 42.5c0 .3-.2.5-.5.5s-.5-.2-.5-.5.2-.5.5-.5.5.2.5.5m15 0c0 .3-.2.5-.5.5s-.5-.2-.5-.5.2-.5.5-.5.5.2.5.5m-43 1c0 .3-.2.5-.5.5s-.5-.2-.5-.5.2-.5.5-.5.5.2.5.5m23 0c0 .3-.2.5-.5.5s-.5-.2-.5-.5.2-.5.5-.5.5.2.5.5m2 0c0 .3-.2.5-.5.5s-.5-.2-.5-.5.2-.5.5-.5.5.2.5.5m1 2c0 .3-.2.5-.5.5s-.5-.2-.5-.5.2-.5.5-.5.5.2.5.5m-27 1c0 .3-.2.5-.5.5s-.5-.2-.5-.5.2-.5.5-.5.5.2.5.5m22 1c0 .3-.2.5-.5.5s-.5-.2-.5-.5.2-.5.5-.5.5.2.5.5m19-.1c0 .3-.5.8-1.2 1.2s-.8.3-.4-.4c.7-1.2 1.6-1.6 1.6-.8m-59 2.1c0 .3-.2.5-.5.5s-.5-.2-.5-.5.2-.5.5-.5.5.2.5.5m40 0c0 .3-.2.5-.5.5s-.5-.2-.5-.5.2-.5.5-.5.5.2.5.5m19 1c0 .3-.2.5-.5.5s-.5-.2-.5-.5.2-.5.5-.5.5.2.5.5m-40 1c0 .3-.2.5-.5.5s-.5-.2-.5-.5.2-.5.5-.5.5.2.5.5m-20 1c0 .3-.2.5-.5.5s-.5-.2-.5-.5.2-.5.5-.5.5.2.5.5m40 0c0 .3-.2.5-.5.5s-.5-.2-.5-.5.2-.5.5-.5.5.2.5.5m-36 2c0 .3-.2.5-.5.5s-.5-.2-.5-.5.2-.5.5-.5.5.2.5.5m4 0c0 .3-.2.5-.5.5s-.5-.2-.5-.5.2-.5.5-.5.5.2.5.5m46 0c0 .3-.2.5-.5.5s-.5-.2-.5-.5.2-.5.5-.5.5.2.5.5m4 0c0 .3-.2.5-.5.5s-.5-.2-.5-.5.2-.5.5-.5.5.2.5.5m-52 1c0 .3-.2.5-.5.5s-.5-.2-.5-.5.2-.5.5-.5.5.2.5.5m12 0c0 .3-.2.5-.5.5s-.5-.2-.5-.5.2-.5.5-.5.5.2.5.5m14.7 1c0 .8-.4 1.2-.9.9s-.6-1-.3-1.5c.9-1.3 1.2-1.1 1.2.6m-23.7 0c0 .3-.2.5-.5.5s-.5-.2-.5-.5.2-.5.5-.5.5.2.5.5m-4 1c0 .3-.2.5-.5.5s-.5-.2-.5-.5.2-.5.5-.5.5.2.5.5m48 0c0 .3-.2.5-.5.5s-.5-.2-.5-.5.2-.5.5-.5.5.2.5.5m-45 1c0 .3-.2.5-.5.5s-.5-.2-.5-.5.2-.5.5-.5.5.2.5.5m11.8 2c-.3.3-.9-.2-1.2-1.2-.6-1.4-.5-1.5.5-.6.7.7 1 1.5.7 1.8m11.2-2c0 .3-.2.5-.5.5s-.5-.2-.5-.5.2-.5.5-.5.5.2.5.5m26 0c0 .3-.2.5-.5.5s-.5-.2-.5-.5.2-.5.5-.5.5.2.5.5m-24 1c0 .3-.2.5-.5.5s-.5-.2-.5-.5.2-.5.5-.5.5.2.5.5m17.7 1.2c-.4.3-.7 0-.7-.7s.3-1 .7-.7c.3.4.3 1 0 1.4m3.5.5c-.7.7-1.2.8-1.2.2 0-1.4 1.2-2.6 1.9-1.9.2.3-.1 1.1-.7 1.7M23 60.5c0 .3-.2.5-.5.5s-.5-.2-.5-.5.2-.5.5-.5.5.2.5.5m2 1c0 .3-.2.5-.5.5s-.5-.2-.5-.5.2-.5.5-.5.5.2.5.5m10 0c0 .3-.2.5-.5.5s-.5-.2-.5-.5.2-.5.5-.5.5.2.5.5m-5 1c0 .3-.2.5-.5.5s-.5-.2-.5-.5.2-.5.5-.5.5.2.5.5m3-.1c0 .3-.5.8-1.2 1.2s-.8.3-.4-.4c.7-1.2 1.6-1.6 1.6-.8m33 .1c0 .3-.2.5-.5.5s-.5-.2-.5-.5.2-.5.5-.5.5.2.5.5m-30 1c0 .3-.2.5-.5.5s-.5-.2-.5-.5.2-.5.5-.5.5.2.5.5m28 0c0 .3-.2.5-.5.5s-.5-.2-.5-.5.2-.5.5-.5.5.2.5.5m-34 1c0 .3-.2.5-.5.5s-.5-.2-.5-.5.2-.5.5-.5.5.2.5.5m4 0c0 .3-.2.5-.5.5s-.5-.2-.5-.5.2-.5.5-.5.5.2.5.5M32.4 68c-.6.6-1 .3-1-1s.4-1.6 1-1c.7.7.7 1.3 0 2m30.3-2.3c-.4.3-1 .3-1.4 0-.3-.4 0-.7.7-.7s1 .3.7.7m-32.7.8c0 .3-.2.5-.5.5s-.5-.2-.5-.5.2-.5.5-.5.5.2.5.5m6 0c0 .3-.2.5-.5.5s-.5-.2-.5-.5.2-.5.5-.5.5.2.5.5m14 0c0 .3-.2.5-.5.5s-.5-.2-.5-.5.2-.5.5-.5.5.2.5.5m-12 1c0 .3-.2.5-.5.5s-.5-.2-.5-.5.2-.5.5-.5.5.2.5.5m22.5.5c-.3.5-1.2 1-1.8 1-.7 0-.6-.4.3-1 1.9-1.2 2.3-1.2 1.5 0m-19 1c.3.5.4 1 .1 1s-.8-.5-1.1-1c-.3-.6-.4-1-.1-1s.8.4 1.1 1m7.5-.5c0 .3-.2.5-.5.5s-.5-.2-.5-.5.2-.5.5-.5.5.2.5.5m2 3c0 .3-.2.5-.5.5s-.5-.2-.5-.5.2-.5.5-.5.5.2.5.5"/><path d="M22 36.5c0 .3.2.5.5.5s.5-.2.5-.5-.2-.5-.5-.5-.5.2-.5.5m8.7-19.6c-.4 1.7-.3 2.1.5 1.3.5-.5.8-1.6.6-2.3-.3-.8-.7-.3-1.1 1m36.3-.4c0 .3.2.5.5.5s.5-.2.5-.5-.2-.5-.5-.5-.5.2-.5.5m3 3.5c0 .5.5 1 1.1 1 .5 0 .7-.5.4-1-.3-.6-.8-1-1.1-1-.2 0-.4.4-.4 1"/></g><path fill="gray" fill-opacity=".1" d="M57 5.5c0 .3.2.5.5.5s.5-.2.5-.5-.2-.5-.5-.5-.5.2-.5.5m-25 1c0 .3.2.5.5.5s.5-.2.5-.5-.2-.5-.5-.5-.5.2-.5.5m30 1c0 .3.2.5.5.5s.5-.2.5-.5-.2-.5-.5-.5-.5.2-.5.5m6 4c0 .3.2.5.5.5s.5-.2.5-.5-.2-.5-.5-.5-.5.2-.5.5m8 9c0 .3.2.5.5.5s.5-.2.5-.5-.2-.5-.5-.5-.5.2-.5.5m-52 7c0 .3.2.5.5.5s.5-.2.5-.5-.2-.5-.5-.5-.5.2-.5.5m-4 4c0 .3.2.5.5.5s.5-.2.5-.5-.2-.5-.5-.5-.5.2-.5.5m61 12c0 .3.2.5.5.5s.5-.2.5-.5-.2-.5-.5-.5-.5.2-.5.5m-68 9c0 .3.2.5.5.5s.5-.2.5-.5-.2-.5-.5-.5-.5.2-.5.5m3 6c0 .3.2.5.5.5s.5-.2.5-.5-.2-.5-.5-.5-.5.2-.5.5m3 4c0 .3.2.5.5.5s.5-.2.5-.5-.2-.5-.5-.5-.5.2-.5.5m3.5 3.5c.3.5.8 1 1.1 1s.2-.5-.1-1c-.3-.6-.8-1-1.1-1s-.2.4.1 1M66 68.5c0 .3.2.5.5.5s.5-.2.5-.5-.2-.5-.5-.5-.5.2-.5.5m-37 2c0 .3.2.5.5.5s.5-.2.5-.5-.2-.5-.5-.5-.5.2-.5.5m2 1c0 .3.2.5.5.5s.5-.2.5-.5-.2-.5-.5-.5-.5.2-.5.5m2 1c0 .3.2.5.5.5s.5-.2.5-.5-.2-.5-.5-.5-.5.2-.5.5m8 2c0 .3.2.5.5.5s.5-.2.5-.5-.2-.5-.5-.5-.5.2-.5.5m10 0c0 .3.2.5.5.5s.5-.2.5-.5-.2-.5-.5-.5-.5.2-.5.5"/><path fill="#BF8040" fill-opacity=".6" d="M18 6.5c0 .3.2.5.5.5s.5-.2.5-.5-.2-.5-.5-.5-.5.2-.5.5m-11 10c0 .3.2.5.5.5s.5-.2.5-.5-.2-.5-.5-.5-.5.2-.5.5m17 3c0 .3.2.5.5.5s.5-.2.5-.5-.2-.5-.5-.5-.5.2-.5.5M3.3 24.7c.4.3 1 .3 1.4 0 .3-.4 0-.7-.7-.7s-1 .3-.7.7m16.7.8c0 .3.2.5.5.5s.5-.2.5-.5-.2-.5-.5-.5-.5.2-.5.5m-4 3c0 .3.2.5.5.5s.5-.2.5-.5-.2-.5-.5-.5-.5.2-.5.5"/><path fill="#FF8040" fill-opacity=".5" d="M19 7c0 .7.3 1 .7.7.3-.4.3-1 0-1.4-.4-.3-.7 0-.7.7m0 3.5c0 .3.2.5.5.5s.5-.2.5-.5-.2-.5-.5-.5-.5.2-.5.5m5 0c0 .3.2.5.5.5s.5-.2.5-.5-.2-.5-.5-.5-.5.2-.5.5m-14 1c0 .3.2.5.5.5s.5-.2.5-.5-.2-.5-.5-.5-.5.2-.5.5m10 9c0 .3.2.5.5.5s.5-.2.5-.5-.2-.5-.5-.5-.5.2-.5.5m2 3c0 .3.2.5.5.5s.5-.2.5-.5-.2-.5-.5-.5-.5.2-.5.5"/><path fill="#BFBF80" fill-opacity=".2" d="M26 6.5c0 .3.2.5.5.5s.5-.2.5-.5-.2-.5-.5-.5-.5.2-.5.5m0 8c0 .3.2.5.5.5s.5-.2.5-.5-.2-.5-.5-.5-.5.2-.5.5m-22 17c0 .3.2.5.5.5s.5-.2.5-.5-.2-.5-.5-.5-.5.2-.5.5"/><path fill="#000040" fill-opacity=".7" d="M34 6.5c0 .3.2.5.5.5s.5-.2.5-.5-.2-.5-.5-.5-.5.2-.5.5m-3 6c0 .3.2.5.5.5s.5-.2.5-.5-.2-.5-.5-.5-.5.2-.5.5m37 0c0 .3.2.5.5.5s.5-.2.5-.5-.2-.5-.5-.5-.5.2-.5.5m5 5c0 .3.2.5.5.5s.5-.2.5-.5-.2-.5-.5-.5-.5.2-.5.5M27 25c0 .7.3 1 .7.7.3-.4.3-1 0-1.4-.4-.3-.7 0-.7.7m52 4.5c0 .3.2.5.5.5s.5-.2.5-.5-.2-.5-.5-.5-.5.2-.5.5m1 15c0 .3.2.5.5.5s.5-.2.5-.5-.2-.5-.5-.5-.5.2-.5.5m-3 10c0 .3.2.5.5.5s.5-.2.5-.5-.2-.5-.5-.5-.5.2-.5.5m-4 6c0 .3.2.5.5.5s.5-.2.5-.5-.2-.5-.5-.5-.5.2-.5.5m-10 9c0 .3.2.5.5.5s.5-.2.5-.5-.2-.5-.5-.5-.5.2-.5.5m-23 4c0 .3.2.5.5.5s.5-.2.5-.5-.2-.5-.5-.5-.5.2-.5.5"/><path fill="#000040" d="M43 6.5c0 .3.2.5.5.5s.5-.2.5-.5-.2-.5-.5-.5-.5.2-.5.5m4 0c0 .3.2.5.5.5s.5-.2.5-.5-.2-.5-.5-.5-.5.2-.5.5M35.4 8.2c-.4.7-.3.8.4.4 1.2-.7 1.6-1.6.8-1.6-.3 0-.8.5-1.2 1.2m16.3-.1c.7.7 1.5 1 1.8.7s-.2-.9-1.2-1.2c-1.4-.6-1.5-.5-.6.5M41 8.5c0 .3.2.5.5.5s.5-.2.5-.5-.2-.5-.5-.5-.5.2-.5.5m3-.1c0 .2 1.1.6 2.5.8 1.3.3 2.2.1 1.9-.3-.5-.9-4.4-1.3-4.4-.5m15 .1c0 .3.2.5.5.5s.5-.2.5-.5-.2-.5-.5-.5-.5.2-.5.5m-22 1c0 .3.2.5.5.5s.5-.2.5-.5-.2-.5-.5-.5-.5.2-.5.5m20 1c0 .3.2.5.5.5s.5-.2.5-.5-.2-.5-.5-.5-.5.2-.5.5m-6 1c0 .3.2.5.5.5s.5-.2.5-.5-.2-.5-.5-.5-.5.2-.5.5m4.5 1.5c.3.5.8 1 1.1 1s.2-.5-.1-1c-.3-.6-.8-1-1.1-1s-.2.4.1 1m8.5-.5c0 .3.2.5.5.5s.5-.2.5-.5-.2-.5-.5-.5-.5.2-.5.5M60 14c0 .7.3 1 .7.7.3-.4.3-1 0-1.4-.4-.3-.7 0-.7.7m6-.5c0 .3.2.5.5.5s.5-.2.5-.5-.2-.5-.5-.5-.5.2-.5.5m-1 2c0 .3.2.5.5.5s.5-.2.5-.5-.2-.5-.5-.5-.5.2-.5.5m2 0c0 .3.2.5.5.5s.5-.2.5-.5-.2-.5-.5-.5-.5.2-.5.5m3 0c0 .3.2.5.5.5s.5-.2.5-.5-.2-.5-.5-.5-.5.2-.5.5m-10.7 1.2c.4.3 1 .3 1.4 0 .3-.4 0-.7-.7-.7s-1 .3-.7.7m2.7.7c0 .2.7.7 1.6 1 .8.3 1.2.2.9-.4-.6-1-2.5-1.4-2.5-.6m6.7 2.7c.3 1 1.3 1.9 2.2 1.8 1 0 1.1-.2.4-.6-.7-.2-1.3-.9-1.3-1.4 0-.6.6-.7 1.3-.3.6.4.8.3.4-.1-1.5-1.7-3.5-1.3-3 .6m-3.2-.2c-.6 1.1 1.3 2.6 2.2 1.7.4-.3.1-.6-.6-.6s-.9-.5-.6-1c.3-.6.4-1 .1-1s-.7.4-1.1.9m7.5-.4c0 .3.2.5.5.5s.5-.2.5-.5-.2-.5-.5-.5-.5.2-.5.5m0 4c0 .3.2.5.5.5s.5-.2.5-.5-.2-.5-.5-.5-.5.2-.5.5m-2 2c0 .3.2.5.5.5s.5-.2.5-.5-.2-.5-.5-.5-.5.2-.5.5m3 0c0 .3.2.5.5.5s.5-.2.5-.5-.2-.5-.5-.5-.5.2-.5.5m2 0c0 .3.2.5.5.5s.5-.2.5-.5-.2-.5-.5-.5-.5.2-.5.5m-50 2.9c0 .8-.6 1.6-1.2 1.9-.7.3-.4.5.7.4 1.3-.1 2.1-.8 2.1-1.9 0-1-.4-1.8-.8-1.8s-.8.6-.8 1.4m48.5-.3c-.3.4.2.6 1 .5 2.1-.3 2.8-1.3 1-1.3-.9 0-1.8.4-2 .8m-45.1 2.7c.4.7.2 1.2-.3 1.2-.6 0-1.1.4-1.1 1 0 1.5 1.7 1.2 2.3-.5.4-.8.1-1.7-.5-2.1-.7-.4-.8-.3-.4.4m40.3.7c-.4.8-.3 1.6.1 1.9s.9-.4.9-1.5c.2-2.3-.3-2.5-1-.4M22 33c0 .5.5 1 1 1 .6 0 1-.5 1-1 0-.6-.4-1-1-1-.5 0-1 .4-1 1m50.9.2c-.5 1-.7 5.9-.3 5.5.6-.6 1.3-5.7.8-5.7-.2 0-.5.1-.5.2M18 35.5c-.8.9-.8 1.5-.2 1.5 1.2 0 2.6-1.9 1.9-2.6-.2-.2-1 .2-1.7 1.1m60-1c0 .3.2.5.5.5s.5-.2.5-.5-.2-.5-.5-.5-.5.2-.5.5M69.5 36c.3.5.8 1 1.1 1s.2-.5-.1-1c-.3-.6-.8-1-1.1-1s-.2.4.1 1m10.5-.5c0 .3.2.5.5.5s.5-.2.5-.5-.2-.5-.5-.5-.5.2-.5.5m-57 1.7c0 .4.7.8 1.5.8s1.5-.4 1.5-.8c0-.5-.7-.9-1.5-.9s-1.5.4-1.5.9m7.3-.5c.4.3 1 .3 1.4 0 .3-.4 0-.7-.7-.7s-1 .3-.7.7m48.1 1.5c-.4.7-.3.8.4.4s1.2-.9 1.2-1.2c0-.8-.9-.4-1.6.8M67 39c0 .7.3 1 .7.7.3-.4.3-1 0-1.4-.4-.3-.7 0-.7.7m9 1.5c0 .3.2.5.5.5s.5-.2.5-.5-.2-.5-.5-.5-.5.2-.5.5M66 42c0 .7.3 1 .7.7.3-.4.3-1 0-1.4-.4-.3-.7 0-.7.7m-53 .5c0 .3.2.5.5.5s.5-.2.5-.5-.2-.5-.5-.5-.5.2-.5.5m3 .5c0 .7.3 1 .7.7.3-.4.3-1 0-1.4-.4-.3-.7 0-.7.7m63-.5c0 .3.2.5.5.5s.5-.2.5-.5-.2-.5-.5-.5-.5.2-.5.5m-43 1c0 .3.2.5.5.5s.5-.2.5-.5-.2-.5-.5-.5-.5.2-.5.5m23 0c0 .3.2.5.5.5s.5-.2.5-.5-.2-.5-.5-.5-.5.2-.5.5m2 0c0 .3.2.5.5.5s.5-.2.5-.5-.2-.5-.5-.5-.5.2-.5.5m-49 2c0 .3.2.5.5.5s.5-.2.5-.5-.2-.5-.5-.5-.5.2-.5.5m50 0c0 .3.2.5.5.5s.5-.2.5-.5-.2-.5-.5-.5-.5.2-.5.5m-27 1c0 .3.2.5.5.5s.5-.2.5-.5-.2-.5-.5-.5-.5.2-.5.5m44 1c0 .3.2.5.5.5s.5-.2.5-.5-.2-.5-.5-.5-.5.2-.5.5m-4 1c0 .3.2.5.5.5s.5-.2.5-.5-.2-.5-.5-.5-.5.2-.5.5m-58 1c0 .3.2.5.5.5s.5-.2.5-.5-.2-.5-.5-.5-.5.2-.5.5m37.5.5c-.3.5-.1 1 .4 1 .6 0 1.1-.5 1.1-1 0-.6-.2-1-.4-1-.3 0-.8.4-1.1 1m-2.5.5c0 .3.2.5.5.5s.5-.2.5-.5-.2-.5-.5-.5-.5.2-.5.5m26 0c0 .3.2.5.5.5s.5-.2.5-.5-.2-.5-.5-.5-.5.2-.5.5M52 53c0 .7.3 1 .7.7.3-.4.3-1 0-1.4-.4-.3-.7 0-.7.7m4-.5c0 .3.2.5.5.5s.5-.2.5-.5-.2-.5-.5-.5-.5.2-.5.5m-36 2c0 .3.2.5.5.5s.5-.2.5-.5-.2-.5-.5-.5-.5.2-.5.5m50 0c0 .3.2.5.5.5s.5-.2.5-.5-.2-.5-.5-.5-.5.2-.5.5m4 0c0 .3.2.5.5.5s.5-.2.5-.5-.2-.5-.5-.5-.5.2-.5.5m-40 1c0 .3.2.5.5.5s.5-.2.5-.5-.2-.5-.5-.5-.5.2-.5.5m-9 1c0 .3.2.5.5.5s.5-.2.5-.5-.2-.5-.5-.5-.5.2-.5.5m23.5.5c.3.5.8 1 1.1 1s.2-.5-.1-1c-.3-.6-.8-1-1.1-1s-.2.4.1 1m26.5-.5c0 .3.2.5.5.5s.5-.2.5-.5-.2-.5-.5-.5-.5.2-.5.5m-54 1c0 .3.2.5.5.5s.5-.2.5-.5-.2-.5-.5-.5-.5.2-.5.5m48 0c0 .3.2.5.5.5s.5-.2.5-.5-.2-.5-.5-.5-.5.2-.5.5m-51 1c0 .3.2.5.5.5s.5-.2.5-.5-.2-.5-.5-.5-.5.2-.5.5m6 0c0 .3.2.5.5.5s.5-.2.5-.5-.2-.5-.5-.5-.5.2-.5.5m11.6.8c.3 1 .9 1.5 1.2 1.2s0-1.1-.7-1.8c-1-.9-1.1-.8-.5.6M67 60c0 .7.3 1 .7.7.3-.4.3-1 0-1.4-.4-.3-.7 0-.7.7m3.6.7c-.6 1.4-.5 1.5.5.6.7-.7 1-1.5.7-1.8s-.9.2-1.2 1.2M22 60.5c0 .3.2.5.5.5s.5-.2.5-.5-.2-.5-.5-.5-.5.2-.5.5m2 1c0 .3.2.5.5.5s.5-.2.5-.5-.2-.5-.5-.5-.5.2-.5.5m10 0c0 .3.2.5.5.5s.5-.2.5-.5-.2-.5-.5-.5-.5.2-.5.5m-5 1c0 .3.2.5.5.5s.5-.2.5-.5-.2-.5-.5-.5-.5.2-.5.5m2.4.7c-.4.7-.3.8.4.4s1.2-.9 1.2-1.2c0-.8-.9-.4-1.6.8m33.6-.7c0 .3.2.5.5.5s.5-.2.5-.5-.2-.5-.5-.5-.5.2-.5.5m-30 1c0 .3.2.5.5.5s.5-.2.5-.5-.2-.5-.5-.5-.5.2-.5.5m11 0c0 .3.2.5.5.5s.5-.2.5-.5-.2-.5-.5-.5-.5.2-.5.5m2 0c0 .3.2.5.5.5s.5-.2.5-.5-.2-.5-.5-.5-.5.2-.5.5m15 0c0 .3.2.5.5.5s.5-.2.5-.5-.2-.5-.5-.5-.5.2-.5.5m6 0c0 .3.2.5.5.5s.5-.2.5-.5-.2-.5-.5-.5-.5.2-.5.5m-40 1c0 .3.2.5.5.5s.5-.2.5-.5-.2-.5-.5-.5-.5.2-.5.5m4 0c0 .3.2.5.5.5s.5-.2.5-.5-.2-.5-.5-.5-.5.2-.5.5m28.3 1.2c.4.3 1 .3 1.4 0 .3-.4 0-.7-.7-.7s-1 .3-.7.7m4.7-.2c0 .3.2.5.5.5s.5-.2.5-.5-.2-.5-.5-.5-.5.2-.5.5M32 67c0 .7.3 1 .7.7.3-.4.3-1 0-1.4-.4-.3-.7 0-.7.7m3-.5c0 .3.2.5.5.5s.5-.2.5-.5-.2-.5-.5-.5-.5.2-.5.5M59 68c-.9.6-1 1-.3 1 .6 0 1.5-.5 1.8-1 .8-1.2.4-1.2-1.5 0m3.3-.3c.4.3 1 .3 1.4 0 .3-.4 0-.7-.7-.7s-1 .3-.7.7m-14.3.8c0 .3.2.5.5.5s.5-.2.5-.5-.2-.5-.5-.5-.5.2-.5.5m-18 1c0 .3.2.5.5.5s.5-.2.5-.5-.2-.5-.5-.5-.5.2-.5.5m15 1c0 .3.2.5.5.5s.5-.2.5-.5-.2-.5-.5-.5-.5.2-.5.5m-10 1c0 .3.2.5.5.5s.5-.2.5-.5-.2-.5-.5-.5-.5.2-.5.5m6.4.7c-.4.7-.3.8.4.4s1.2-.9 1.2-1.2c0-.8-.9-.4-1.6.8m15.6-.7c0 .3.2.5.5.5s.5-.2.5-.5-.2-.5-.5-.5-.5.2-.5.5"/><path fill="#404040" d="M53 6.5c0 .3.2.5.5.5s.5-.2.5-.5-.2-.5-.5-.5-.5.2-.5.5m-16 1c0 .3.2.5.5.5s.5-.2.5-.5-.2-.5-.5-.5-.5.2-.5.5m5.3 1.2c.4.3 1 .3 1.4 0 .3-.4 0-.7-.7-.7s-1 .3-.7.7m-4 1c.4.3 1 .3 1.4 0 .3-.4 0-.7-.7-.7s-1 .3-.7.7M51 9.5c0 .3.2.5.5.5s.5-.2.5-.5-.2-.5-.5-.5-.5.2-.5.5m4 0c0 .3.2.5.5.5s.5-.2.5-.5-.2-.5-.5-.5-.5.2-.5.5m-20 1c0 .3.2.5.5.5s.5-.2.5-.5-.2-.5-.5-.5-.5.2-.5.5m8.3.2c.9.2 2.3.2 3 0 .6-.3-.1-.5-1.8-.5-1.6 0-2.2.2-1.2.5m5.2.2c-.3.5-.2 1.2.3 1.5s.9-.1.9-.9c0-1.7-.3-1.9-1.2-.6m4.1.8c-.6 1.4-.5 1.5.5.6.7-.7 1-1.5.7-1.8s-.9.2-1.2 1.2m6.4-1.2c0 .3.2.5.5.5s.5-.2.5-.5-.2-.5-.5-.5-.5.2-.5.5m7 1c0 .3.2.5.5.5s.5-.2.5-.5-.2-.5-.5-.5-.5.2-.5.5m-5 1c0 .3.2.5.5.5s.5-.2.5-.5-.2-.5-.5-.5-.5.2-.5.5m2 1c0 .3.2.5.5.5s.5-.2.5-.5-.2-.5-.5-.5-.5.2-.5.5m-8 1c0 .3.2.5.5.5s.5-.2.5-.5-.2-.5-.5-.5-.5.2-.5.5m1 2c0 .3.2.5.5.5s.5-.2.5-.5-.2-.5-.5-.5-.5.2-.5.5m10 0c0 .3.2.5.5.5s.5-.2.5-.5-.2-.5-.5-.5-.5.2-.5.5m2 0c0 .3.2.5.5.5s.5-.2.5-.5-.2-.5-.5-.5-.5.2-.5.5m-10 1c0 .3.2.5.5.5s.5-.2.5-.5-.2-.5-.5-.5-.5.2-.5.5m12 0c0 .3.2.5.5.5s.5-.2.5-.5-.2-.5-.5-.5-.5.2-.5.5m2 0c0 .3.2.5.5.5s.5-.2.5-.5-.2-.5-.5-.5-.5.2-.5.5m-14 2c0 .3.2.5.5.5s.5-.2.5-.5-.2-.5-.5-.5-.5.2-.5.5m3.5.5c-.3.6.1.7.9.4 1.8-.7 2.1-1.4.7-1.4-.6 0-1.3.4-1.6 1m6.5.5c0 .3.2.5.5.5s.5-.2.5-.5-.2-.5-.5-.5-.5.2-.5.5m4 0c0 .3.2.5.5.5s.5-.2.5-.5-.2-.5-.5-.5-.5.2-.5.5m-5 4c0 .3.2.5.5.5s.5-.2.5-.5-.2-.5-.5-.5-.5.2-.5.5m3.3.2c.4.3 1 .3 1.4 0 .3-.4 0-.7-.7-.7s-1 .3-.7.7m-.3 1.8c0 .3.2.5.5.5s.5-.2.5-.5-.2-.5-.5-.5-.5.2-.5.5m3 0c0 .3.2.5.5.5s.5-.2.5-.5-.2-.5-.5-.5-.5.2-.5.5m-4 3c0 .3.2.5.5.5s.5-.2.5-.5-.2-.5-.5-.5-.5.2-.5.5m2 0c0 .3.2.5.5.5s.5-.2.5-.5-.2-.5-.5-.5-.5.2-.5.5m-39 1c0 .3.2.5.5.5s.5-.2.5-.5-.2-.5-.5-.5-.5.2-.5.5m-1 2c0 .3.2.5.5.5s.5-.2.5-.5-.2-.5-.5-.5-.5.2-.5.5m2.5.5c.3.5.8 1 1.1 1s.2-.5-.1-1c-.3-.6-.8-1-1.1-1s-.2.4.1 1m34 0c.3.5.8 1 1.1 1s.2-.5-.1-1c-.3-.6-.8-1-1.1-1s-.2.4.1 1m-33 3c.3.5.8 1 1.1 1s.2-.5-.1-1c-.3-.6-.8-1-1.1-1s-.2.4.1 1m31.5-.5c0 .3.2.5.5.5s.5-.2.5-.5-.2-.5-.5-.5-.5.2-.5.5M38.3 41c0 3 .2 4.3.4 2.7.2-1.5.2-3.9 0-5.5-.2-1.5-.4-.2-.4 2.8M65 39.5c0 .3.2.5.5.5s.5-.2.5-.5-.2-.5-.5-.5-.5.2-.5.5m-5 2c0 .3.2.5.5.5s.5-.2.5-.5-.2-.5-.5-.5-.5.2-.5.5m-2 1c0 .3.2.5.5.5s.5-.2.5-.5-.2-.5-.5-.5-.5.2-.5.5m6 0c0 .3.2.5.5.5s.5-.2.5-.5-.2-.5-.5-.5-.5.2-.5.5m-7 2c0 .3.2.5.5.5s.5-.2.5-.5-.2-.5-.5-.5-.5.2-.5.5m0 3c0 .3.2.5.5.5s.5-.2.5-.5-.2-.5-.5-.5-.5.2-.5.5m19 0c0 .3.2.5.5.5s.5-.2.5-.5-.2-.5-.5-.5-.5.2-.5.5m-19 2c0 .3.2.5.5.5s.5-.2.5-.5-.2-.5-.5-.5-.5.2-.5.5m21 0c0 .3.2.5.5.5s.5-.2.5-.5-.2-.5-.5-.5-.5.2-.5.5m-40 1c0 .3.2.5.5.5s.5-.2.5-.5-.2-.5-.5-.5-.5.2-.5.5m38 0c0 .3.2.5.5.5s.5-.2.5-.5-.2-.5-.5-.5-.5.2-.5.5m-40 1c0 .3.2.5.5.5s.5-.2.5-.5-.2-.5-.5-.5-.5.2-.5.5m17 0c0 .3.2.5.5.5s.5-.2.5-.5-.2-.5-.5-.5-.5.2-.5.5m-37 1c0 .3.2.5.5.5s.5-.2.5-.5-.2-.5-.5-.5-.5.2-.5.5m34 0c0 .3.2.5.5.5s.5-.2.5-.5-.2-.5-.5-.5-.5.2-.5.5m26 1c0 .3.2.5.5.5s.5-.2.5-.5-.2-.5-.5-.5-.5.2-.5.5m-52 1c0 .3.2.5.5.5s.5-.2.5-.5-.2-.5-.5-.5-.5.2-.5.5m23 0c0 .3.2.5.5.5s.5-.2.5-.5-.2-.5-.5-.5-.5.2-.5.5m-25 1c0 .3.2.5.5.5s.5-.2.5-.5-.2-.5-.5-.5-.5.2-.5.5m27 0c0 .3.2.5.5.5s.5-.2.5-.5-.2-.5-.5-.5-.5.2-.5.5m-11 1c0 .3.2.5.5.5s.5-.2.5-.5-.2-.5-.5-.5-.5.2-.5.5m7 1c0 .3.2.5.5.5s.5-.2.5-.5-.2-.5-.5-.5-.5.2-.5.5m2 1c0 .3.2.5.5.5s.5-.2.5-.5-.2-.5-.5-.5-.5.2-.5.5m26 0c0 .3.2.5.5.5s.5-.2.5-.5-.2-.5-.5-.5-.5.2-.5.5m-24 1c0 .3.2.5.5.5s.5-.2.5-.5-.2-.5-.5-.5-.5.2-.5.5M45 61c0 .7.3 1 .7.7.3-.4.3-1 0-1.4-.4-.3-.7 0-.7.7m25-.5c0 .3.2.5.5.5s.5-.2.5-.5-.2-.5-.5-.5-.5.2-.5.5M38 62c0 .7.3 1 .7.7.3-.4.3-1 0-1.4-.4-.3-.7 0-.7.7m6 1.5c0 .3.2.5.5.5s.5-.2.5-.5-.2-.5-.5-.5-.5.2-.5.5m-7 .8c0 .2.6 1 1.4 1.6 1.1.9 1.6.9 2.2-.1.4-.7.4-1-.1-.6-.4.4-1.4.3-2.2-.3-.7-.6-1.3-.9-1.3-.6m9.5.7c-.4.6-1.1.7-1.7.4-.7-.4-.8-.2-.4.5.6.9 1.1.9 2.2 0 1.4-1.1 1.8-1.9 1-1.9-.3 0-.8.5-1.1 1m2.5-.5c0 .3.2.5.5.5s.5-.2.5-.5-.2-.5-.5-.5-.5.2-.5.5m-18 1c0 .3.2.5.5.5s.5-.2.5-.5-.2-.5-.5-.5-.5.2-.5.5m-2 1c0 .3.2.5.5.5s.5-.2.5-.5-.2-.5-.5-.5-.5.2-.5.5m20 0c0 .3.2.5.5.5s.5-.2.5-.5-.2-.5-.5-.5-.5.2-.5.5m-12 1c0 .3.2.5.5.5s.5-.2.5-.5-.2-.5-.5-.5-.5.2-.5.5m-8 1c0 .3.2.5.5.5s.5-.2.5-.5-.2-.5-.5-.5-.5.2-.5.5m2 0c0 .3.2.5.5.5s.5-.2.5-.5-.2-.5-.5-.5-.5.2-.5.5m9.5.5c.3.5.8 1 1.1 1s.2-.5-.1-1c-.3-.6-.8-1-1.1-1s-.2.4.1 1m2.5-.6c0 .2.9.6 2 .9s1.8.1 1.4-.4c-.5-.9-3.4-1.3-3.4-.5m-9 3.1c0 .3.2.5.5.5s.5-.2.5-.5-.2-.5-.5-.5-.5.2-.5.5m16 0c0 .3.2.5.5.5s.5-.2.5-.5-.2-.5-.5-.5-.5.2-.5.5"/><path fill="#BF8080" fill-opacity=".2" d="M11.4 8.2c-.4.7-.3.8.4.4 1.2-.7 1.6-1.6.8-1.6-.3 0-.8.5-1.2 1.2M10 14.5c0 .3.2.5.5.5s.5-.2.5-.5-.2-.5-.5-.5-.5.2-.5.5m-7 3c0 .3.2.5.5.5s.5-.2.5-.5-.2-.5-.5-.5-.5.2-.5.5m4 7c0 .3.2.5.5.5s.5-.2.5-.5-.2-.5-.5-.5-.5.2-.5.5m3 5c0 .3.2.5.5.5s.5-.2.5-.5-.2-.5-.5-.5-.5.2-.5.5m-6 3c0 .3.2.5.5.5s.5-.2.5-.5-.2-.5-.5-.5-.5.2-.5.5"/><path fill="#BF4000" fill-opacity=".7" d="M18 7.5c0 .3.2.5.5.5s.5-.2.5-.5-.2-.5-.5-.5-.5.2-.5.5"/><path fill="#BF8080" fill-opacity=".3" d="M26 7.5c0 .3.2.5.5.5s.5-.2.5-.5-.2-.5-.5-.5-.5.2-.5.5M12 9c0 .7.3 1 .7.7.3-.4.3-1 0-1.4-.4-.3-.7 0-.7.7m-3 4.5c0 .3.2.5.5.5s.5-.2.5-.5-.2-.5-.5-.5-.5.2-.5.5m-2 2c0 .3.2.5.5.5s.5-.2.5-.5-.2-.5-.5-.5-.5.2-.5.5m10 1c0 .3.2.5.5.5s.5-.2.5-.5-.2-.5-.5-.5-.5.2-.5.5m-4 14c0 .3.2.5.5.5s.5-.2.5-.5-.2-.5-.5-.5-.5.2-.5.5"/><path fill="#804080" fill-opacity=".4" d="M31 7.5c0 .3.2.5.5.5s.5-.2.5-.5-.2-.5-.5-.5-.5.2-.5.5m0 2c0 .3.2.5.5.5s.5-.2.5-.5-.2-.5-.5-.5-.5.2-.5.5"/><path fill-opacity=".8" d="M32 7.5c0 .3.2.5.5.5s.5-.2.5-.5-.2-.5-.5-.5-.5.2-.5.5M28 23c0 .7.3 1 .7.7.3-.4.3-1 0-1.4-.4-.3-.7 0-.7.7m-9 10.5c0 .3.2.5.5.5s.5-.2.5-.5-.2-.5-.5-.5-.5.2-.5.5m-4 2c0 .3.2.5.5.5s.5-.2.5-.5-.2-.5-.5-.5-.5.2-.5.5m63 16c0 .3.2.5.5.5s.5-.2.5-.5-.2-.5-.5-.5-.5.2-.5.5m-59 9c0 .3.2.5.5.5s.5-.2.5-.5-.2-.5-.5-.5-.5.2-.5.5m48 6c0 .3.2.5.5.5s.5-.2.5-.5-.2-.5-.5-.5-.5.2-.5.5m-41 1c0 .3.2.5.5.5s.5-.2.5-.5-.2-.5-.5-.5-.5.2-.5.5"/><path fill="#004000" d="M33 7.5c0 .3.2.5.5.5s.5-.2.5-.5-.2-.5-.5-.5-.5.2-.5.5m-6 28.9c0 .2.7.7 1.6 1 .8.3 1.2.2.9-.4-.6-1-2.5-1.4-2.5-.6"/><path fill="#BF4000" fill-opacity=".8" d="M18.1 9.6c0 1.1.3 1.4.6.6.3-.7.2-1.6-.1-1.9-.3-.4-.6.2-.5 1.3m-7.6 2.5c-.4.6-.5 1.2-.2 1.5.2.3.7-.2 1-1.1.7-1.7.1-2-.8-.4m8.9 10.1c-.4.7-.3.8.4.4 1.2-.7 1.6-1.6.8-1.6-.3 0-.8.5-1.2 1.2M7 23.5c0 .3.2.5.5.5s.5-.2.5-.5-.2-.5-.5-.5-.5.2-.5.5m0 8c0 .3.2.5.5.5s.5-.2.5-.5-.2-.5-.5-.5-.5.2-.5.5"/><path fill="#FF8040" fill-opacity=".6" d="M19 9c0 .7.3 1 .7.7.3-.4.3-1 0-1.4-.4-.3-.7 0-.7.7m5 2.5c0 .3.2.5.5.5s.5-.2.5-.5-.2-.5-.5-.5-.5.2-.5.5m-8 2c0 .3.2.5.5.5s.5-.2.5-.5-.2-.5-.5-.5-.5.2-.5.5m-2 3c0 .3.2.5.5.5s.5-.2.5-.5-.2-.5-.5-.5-.5.2-.5.5m11 1c0 .3.2.5.5.5s.5-.2.5-.5-.2-.5-.5-.5-.5.2-.5.5m-12 4c0 .3.2.5.5.5s.5-.2.5-.5-.2-.5-.5-.5-.5.2-.5.5m-2 10c0 .3.2.5.5.5s.5-.2.5-.5-.2-.5-.5-.5-.5.2-.5.5"/><path fill="#BF4040" d="M25 9c0 .7.3 1 .7.7.3-.4.3-1 0-1.4-.4-.3-.7 0-.7.7M14 27.5c0 .3.2.5.5.5s.5-.2.5-.5-.2-.5-.5-.5-.5.2-.5.5"/><path fill="#004040" d="M32 9c0 .7.3 1 .7.7.3-.4.3-1 0-1.4-.4-.3-.7 0-.7.7m-5 17.5c0 .3.2.5.5.5s.5-.2.5-.5-.2-.5-.5-.5-.5.2-.5.5m0 2c0 .3.2.5.5.5s.5-.2.5-.5-.2-.5-.5-.5-.5.2-.5.5m2.4 2.7c-.4.7-.3.8.4.4s1.2-.9 1.2-1.2c0-.8-.9-.4-1.6.8M27 32.5c0 .3.2.5.5.5s.5-.2.5-.5-.2-.5-.5-.5-.5.2-.5.5m-9 2c0 .3.2.5.5.5s.5-.2.5-.5-.2-.5-.5-.5-.5.2-.5.5m9 1c0 .3.2.5.5.5s.5-.2.5-.5-.2-.5-.5-.5-.5.2-.5.5M16.5 37c.3.5.8 1 1.1 1s.2-.5-.1-1c-.3-.6-.8-1-1.1-1s-.2.4.1 1m15.9.2c-.4.7-.3.8.4.4s1.2-.9 1.2-1.2c0-.8-.9-.4-1.6.8"/><path fill="#BF8080" d="M11 9.5c0 .3.2.5.5.5s.5-.2.5-.5-.2-.5-.5-.5-.5.2-.5.5M5 32c0 .7.3 1 .7.7.3-.4.3-1 0-1.4-.4-.3-.7 0-.7.7"/><path fill="#BF4000" d="M11 10.5c0 .3.2.5.5.5s.5-.2.5-.5-.2-.5-.5-.5-.5.2-.5.5m13.8 2.2c-.8 4.4-1.2 5.7-2.6 7.1-.7.8-.9 1.8-.6 2.4.4.6 1.2 0 2-1.4 1.4-2.7 3-10.8 2.1-10.8-.2 0-.7 1.2-.9 2.7m-7.5 0c-.3 1-1.7 3.3-3.1 5.2-2.3 3.1-2.3 3.2-.3 2.2 1.1-.7 2.1-1.3 2.1-1.5s.7-2 1.5-4 1.3-3.6 1-3.6-.8.8-1.2 1.7M8.5 23c-.3.6.1.7.9.4 1.8-.7 2.1-1.4.7-1.4-.6 0-1.3.4-1.6 1m6.5 4.1c-2.5 2.2-3.6 3.7-2.5 3.3s2.6-1.4 3.3-2.3 1.6-1.5 2-1.4c.4.2.7-.3.7-1 .1-.6.7-1.1 1.4-.9.7.1 1-.2.6-.8-.8-1.3-.3-1.6-5.5 3.1"/><path fill="#BF8040" fill-opacity=".4" d="M17 10.5c0 .3.2.5.5.5s.5-.2.5-.5-.2-.5-.5-.5-.5.2-.5.5m9 1.5c0 .7.3 1 .7.7.3-.4.3-1 0-1.4-.4-.3-.7 0-.7.7m-3 3.5c0 .3.2.5.5.5s.5-.2.5-.5-.2-.5-.5-.5-.5.2-.5.5m-12 7c0 .3.2.5.5.5s.5-.2.5-.5-.2-.5-.5-.5-.5.2-.5.5m10 2c0 .3.2.5.5.5s.5-.2.5-.5-.2-.5-.5-.5-.5.2-.5.5"/><path fill="gray" d="M36 10.5c0 .3.2.5.5.5s.5-.2.5-.5-.2-.5-.5-.5-.5.2-.5.5m5 0c0 .3.2.5.5.5s.5-.2.5-.5-.2-.5-.5-.5-.5.2-.5.5m-8.6 1.7c-.4.7-.3.8.4.4 1.2-.7 1.6-1.6.8-1.6-.3 0-.8.5-1.2 1.2M50 13.5c0 .3.2.5.5.5s.5-.2.5-.5-.2-.5-.5-.5-.5.2-.5.5m2.8 1.2c.7.3 1.6.2 1.9-.1.4-.3-.2-.6-1.3-.5-1.1 0-1.4.3-.6.6m-21.7 3.6c-1.3 2.1-1.2 2.1.5.5 1-1 1.6-2 1.3-2.2-.3-.3-1.1.5-1.8 1.7m24.9-.8c0 .3.2.5.5.5s.5-.2.5-.5-.2-.5-.5-.5-.5.2-.5.5m4 3c0 .3.2.5.5.5s.5-.2.5-.5-.2-.5-.5-.5-.5.2-.5.5m2 1c0 .3.2.5.5.5s.5-.2.5-.5-.2-.5-.5-.5-.5.2-.5.5m-33 1c0 .3.2.5.5.5s.5-.2.5-.5-.2-.5-.5-.5-.5.2-.5.5m35 0c0 .3.2.5.5.5s.5-.2.5-.5-.2-.5-.5-.5-.5.2-.5.5m-35 2c0 .3.2.5.5.5s.5-.2.5-.5-.2-.5-.5-.5-.5.2-.5.5m39 1c0 .3.2.5.5.5s.5-.2.5-.5-.2-.5-.5-.5-.5.2-.5.5m-38 1c0 .3.2.5.5.5s.5-.2.5-.5-.2-.5-.5-.5-.5.2-.5.5m40 1c0 .3.2.5.5.5s.5-.2.5-.5-.2-.5-.5-.5-.5.2-.5.5m-2 3c0 .3.2.5.5.5s.5-.2.5-.5-.2-.5-.5-.5-.5.2-.5.5M66 34c0 .7.3 1 .7.7.3-.4.3-1 0-1.4-.4-.3-.7 0-.7.7m-29.5 1c.3.5.8 1 1.1 1s.2-.5-.1-1c-.3-.6-.8-1-1.1-1s-.2.4.1 1M65 38c0 .7.3 1 .7.7.3-.4.3-1 0-1.4-.4-.3-.7 0-.7.7m-1.7 2.7c.4.3 1 .3 1.4 0 .3-.4 0-.7-.7-.7s-1 .3-.7.7m-5.3.8c0 .3.2.5.5.5s.5-.2.5-.5-.2-.5-.5-.5-.5.2-.5.5m-2 4c0 .3.2.5.5.5s.5-.2.5-.5-.2-.5-.5-.5-.5.2-.5.5m-5.7 5.2c.4.3 1 .3 1.4 0 .3-.4 0-.7-.7-.7s-1 .3-.7.7m-12.3.8c0 .3.2.5.5.5s.5-.2.5-.5-.2-.5-.5-.5-.5.2-.5.5m10 2c0 .3.2.5.5.5s.5-.2.5-.5-.2-.5-.5-.5-.5.2-.5.5m-10 2c0 .3.2.5.5.5s.5-.2.5-.5-.2-.5-.5-.5-.5.2-.5.5m8 0c0 .3.2.5.5.5s.5-.2.5-.5-.2-.5-.5-.5-.5.2-.5.5m-2 3c0 .3.2.5.5.5s.5-.2.5-.5-.2-.5-.5-.5-.5.2-.5.5m-5 5c0 .3.2.5.5.5s.5-.2.5-.5-.2-.5-.5-.5-.5.2-.5.5m2 3c0 .3.2.5.5.5s.5-.2.5-.5-.2-.5-.5-.5-.5.2-.5.5"/><g fill="#BFBFBF" stroke-width="0"><path d="M37 10.5c0 .3.2.5.5.5s.5-.2.5-.5-.2-.5-.5-.5-.5.2-.5.5m2 0c0 .3.2.5.5.5s.5-.2.5-.5-.2-.5-.5-.5-.5.2-.5.5m-5.9 1.8c-.8 1.1-.4 1.3 2.3 1.3 1.9 0 3.2-.4 2.9-.9-.2-.4-1.4-.5-2.5-.1-1.4.4-1.8.2-1.4-.5 1-1.5.1-1.4-1.3.2m10.6.2c.2.7 1 1.2 1.8 1.2s1.1-.5.8-1c-.4-.7.1-.8 1.3-.3 1 .4 1.5.3 1-.1-1.2-1.2-5.4-1-4.9.2m-3 .6c.7.7 1.5 1 1.8.7s-.2-.9-1.2-1.2c-1.4-.6-1.5-.5-.6.5m9.7 2c-.3.6-.2 1.5.4 2.1s1.2.6 1.7-.3c.6-.8.4-1-.5-.4-1 .6-1.2.4-.7-.8.7-1.9.2-2.3-.9-.6m-18.4.4c0 .3.2.5.5.5s.5-.2.5-.5-.2-.5-.5-.5-.5.2-.5.5m22.4.7c-.4.7-.3.8.4.4s1.2-.9 1.2-1.2c0-.8-.9-.4-1.6.8M33 18.5c0 .3.2.5.5.5s.5-.2.5-.5-.2-.5-.5-.5-.5.2-.5.5m20 .5c0 .5-.7.7-1.5.4-.8-.4-1.5-.1-1.5.5s.3 1 .8 1c.4-.1.9 0 1.2.1 2.6 1 3.7.6 3.3-1.1-.5-2-2.3-2.7-2.3-.9m1 1.5c0 .3-.2.5-.5.5s-.5-.2-.5-.5.2-.5.5-.5.5.2.5.5m2-1.6c0 .5.5 1.3 1 1.6.6.3 1 .2 1-.4 0-.5-.4-1.3-1-1.6-.5-.3-1-.2-1 .4m-25.6 1.3c-.4.7-.3.8.4.4s1.2-.9 1.2-1.2c0-.8-.9-.4-1.6.8m29.2 1.5c.2.7-.1 1.5-.6 1.8s-.8 1.4-.7 2.5c.1 1.2.5 1.6 1.2 1 .5-.4 2.2-.7 3.8-.5 1.7.2 2.5-.1 2.1-.7s-.1-.8.7-.6c2.1.8 1.3 5.8-1.2 8.2l-2.2 2.1.6-2.3c.3-1.3 0-2.2-.6-2.2-.7 0-.6-.4.3-1s1.7-.5 2.3.3c.6.9.7.8.5-.2-.5-1.8-5.4-2.3-6.6-.8-.5.7-.6 2.1-.1 3.2.6 1.7.8 1.7.8.2.1-2 2.1-2.3 2.1-.3 0 .8-.4 1.8-1 2.1-.5.3-.9 1.4-.9 2.3.1 1.5.2 1.4.6-.1.3-1 1.1-1.6 1.8-1.3 1.4.5 5.5-3.3 5.5-5.2 0-.7.5-1.2 1-1.2 1.8 0 .5-2.5-2.4-4.7l-3-2.3-2.3 2.2c-2.7 2.5-3.1 1.4-.5-1.5.9-1.1 1.2-1.7.5-1.4-.6.4-1.3.4-1.6 0-.2-.5-.2-.3-.1.4m4.9 3.4c-.4.5-1.2.9-1.8.8-.9 0-.8-.2.1-.6.6-.2.9-1 .6-1.5-.4-.7-.2-.8.5-.4.6.4.9 1.2.6 1.7M62 29.4c0 .2-.7.7-1.6 1-.8.3-1.2.2-.9-.4.6-1 2.5-1.4 2.5-.6m-30-7.9c0 .3.2.5.5.5s.5-.2.5-.5-.2-.5-.5-.5-.5.2-.5.5m-2.4 1.3c-.3.5.1.9.9.9s1.2-.4.9-.9c-.3-.4-.7-.8-.9-.8s-.6.4-.9.8m1.1 3.9c.7 1.7 2 1.7 2 0 0-.8-.6-1.4-1.3-1.4s-1 .6-.7 1.4m1.3 2.8c0 .3.2.5.5.5s.5-.2.5-.5-.2-.5-.5-.5-.5.2-.5.5m3.4 1.7c-.3.5-1.1.5-1.7.1-.7-.4-.5.1.3 1.1 1.3 1.7 1.4 1.7 2.1-.1.6-1.5.8-1.4 1.4.9.9 3.3 3 5.4 4 3.8.4-.6.1-.9-.6-.8-.7.2-1.3-.2-1.4-.7 0-.6-.4-1.5-.8-2.2-.4-.6-.2-1.5.4-1.9.7-.4 1-.3.7.2s0 1.4.7 2.1c1 .9 1.3.7 1.1-1.1-.1-1.8-.7-2.2-2.9-2.2-1.5 0-3 .3-3.3.8"/><path d="M55.6 39.7c-1.6 1.9-3.1 3.1-3.4 2.8-.3-.2.2-1.3 1.1-2.3 1.6-1.8 1.6-1.9-.5-1.7-2 .2-2.3.7-2.1 4.4.2 4.1.1 4.2-2.8 3.7-1.7-.2-2.7 0-2.3.6.3.5 2 .8 3.7.6 2.4-.2 3.1.1 2.9 1.2-.3 1 .3.9 1.7-.5 1.4-1.2 1.8-2.1 1-2.5q-.9-.75.9-1.2c1.5-.4 2-1.3 1.8-3.2-.4-3-.3-3 2.4-1.4 2.4 1.6 4.4 0 2.9-2.2-.9-1.3-1-1.2-.5.2.8 2.6-2.5 1.8-3.5-.8-.2-.5-1.7.5-3.3 2.3m-3.9 1c-.4.3-.7 0-.7-.7s.3-1 .7-.7c.3.4.3 1 0 1.4m5 1.3c-.1 1-.3 1.7-.6 1.5-.9-.9-3 1.7-2.4 3.1.8 2.3-.5 1.6-1.8-.9-.6-1.2-.8-1.9-.4-1.5s1.6-.4 2.7-1.7c2.3-3 2.7-3.1 2.5-.5m7.7-4.8c-.4.7-.3.8.4.4s1.2-.9 1.2-1.2c0-.8-.9-.4-1.6.8m-24.3 3.4c0 1.1.3 1.4.6.6.3-.7.2-1.6-.1-1.9-.3-.4-.6.2-.5 1.3m.1 4.4c-1.5 2.4-1.6 5.7-.2 6.5.6.3 1 .1 1-.5s.4-.8 1-.5c.6.4.7-.1.3-1.1s-.2-1.5.4-1.1c.5.3 1-.1 1-1 0-1.2-.5-1.1-1.9.7-2 2.4-2.4 1.1-.7-2.2 1.4-2.6.7-3.3-.9-.8m3.4 6.3c-2.4 2.5-2.7 6.5-.6 7.7 1 .7 1.1.9.2 1-.7 0-1.1.4-.8.8.3.5 0 .9-.7.9-.8 0-1.2-1.3-1.2-3.3.1-1.8-.2-3.1-.7-2.8-.4.3-.8 1.9-.8 3.6 0 2.2.5 3.1 2.2 3.6 2.1.5 2.1.6.2 1.3-1.8.7-1.8.8 0 .8 1.2.1 1.6.6 1.2 1.6-.3.8-.1 1.5.4 1.5.6 0 1.1-1 1.1-2.3.1-1.2.3-3.2.4-4.5s-.4-2.6-1.1-2.9c-2-.7-.7-2.3 1.4-1.6 1.3.4 1.3.2-.3-1.1s-1.7-1.5-.3-1c1.1.4 2 0 2.4-.9.3-.9 1.3-1.3 2.2-1 1.4.4 1.5.3.2-.5-.8-.6-1.8-.8-2.2-.6-.4.3-.8 0-.8-.7 0-.6.8-.9 2-.6 1.1.3 1.8.1 1.4-.4-.9-1.5-3.8-.8-5.8 1.4M46 53c0 .5-.4 1-1 1-.5 0-1-.5-1-1 0-.6.5-1 1-1 .6 0 1 .4 1 1m-3 .5c0 .3-.2.5-.5.5s-.5-.2-.5-.5.2-.5.5-.5.5.2.5.5m-5 .1c0 .8.5 1.2 1 .9.6-.4.8-1.1.5-1.6-.9-1.4-1.5-1.1-1.5.7m7 13.9c0 .3.2.5.5.5s.5-.2.5-.5-.2-.5-.5-.5-.5.2-.5.5"/></g><g fill="#FFF" stroke-width="0"><path d="M38.3 11.8c.3 1.2.1 2-.4 1.6-.5-.3-1.7 0-2.6.5-1 .6-1.4 1.1-1 1.1.5 0 .1.7-.7 1.6-.9.8-1.6 2.1-1.6 2.7 0 .7.4.6 1-.3.7-1.1.9-.1.8 3.5 0 2.7-.5 5.3-1 5.6-.4.3-.1 1.4.8 2.5.8 1 1.3 1.4 1 .9-.3-.7 1-1.1 3.2-1.1 3.1 0 3.7.3 3.8 2.2.2 1.8-.1 2-1.1 1.1-.7-.7-1-1.7-.7-2.2.3-.6-.1-.4-1 .3-1.3 1-1.7 1-2.1 0-.4-.9-.6-.7-.6.4-.1.9.4 2 .9 2.3.6.3 1 .1 1-.5s.4-.9.9-.5c.6.3.8 1.4.6 2.5s0 2.2.6 2.5c.5.4.9 1.4.9 2.3 0 1.5-.2 1.5-1 .2-.8-1.2-1-.9-1 1.2 0 2.6 1.3 3.8 2.3 2 .2-.4.1 0-.1.8-.3.8-.5 2.7-.5 4.2s-.3 2.6-.6 2.3c-.9-.5-.7 3.4.3 6.3.5 1.4.3 2.8-.4 3.7-1 1.2-.9 1.6.4 2.1.9.4 2 .4 2.3 0 .4-.3-.1-.6-1.1-.6-.9 0-1.4-.5-1.1-1 .4-.6 1.1-.7 1.7-.4.7.5.8.2.3-.6-.6-1-.3-1.2 1.1-.7s1.2.2-.6-1.2l-2.5-2 2.5.6c1.4.3 2.2.3 1.8-.1-.3-.4.7-2 2.3-3.5 2.8-2.7 2.9-4.1.2-4.1-.7 0-1.3.5-1.3 1.1 0 .5.5.7 1.1.3.7-.4.7.1-.1 1.6-.7 1.3-1.7 1.9-2.6 1.6-.8-.3-1.2-.2-.9.3s.1 1.2-.4 1.5c-.5.4-1.1-.2-1.3-1.1-.6-2.8 3.9-6.5 7.2-5.9 2.1.3 3.4-.2 4.9-2 1.1-1.3 1.6-2.4.9-2.4-.6 0-.8-.3-.4-.8.4-.4 1.2-.7 1.7-.7s.9-.3.9-.8v-1.9c0-.6-.9-.3-2 .7-1.2 1-1.8 2.5-1.5 3.2.3.9 0 1.1-.7.7-.7-.5-.9-.2-.6.7.4 1.1-.3 1.6-2.7 1.7-1.9.2-3.6-.2-3.9-.7-.4-.6.6-.8 2.3-.6 2.9.4 3 .3 2.8-3.8s-.2-4.2 3.2-4.2c2.5 0 3.6-.5 4.2-2 .7-1.9.8-1.9.8.2.1 1.3-.4 2.3-1 2.3-.5 0-.7.4-.4 1 .3.5 1.1 1 1.6 1 .6 0 .8-.4.5-.8-.2-.4.5-1.4 1.6-2.1 1.8-1.1 2-1.1 1.5.1-.3.8.1 1.5.8 1.5s1.1-.6.8-1.3c-.2-.6 0-1.5.6-1.9.6-.3 1.1-1.1 1.1-1.8 0-.8-.3-.8-1.1 0-.6.6-1.7.9-2.4.6-.7-.2-1.5.4-1.8 1.4-.4 1.5-.5 1.6-.6.1 0-.9.4-2 .9-2.3.6-.3 1-1.3 1-2.1 0-2-2-1.7-2.1.3 0 1.5-.2 1.5-.8-.2-.5-1.1-.4-2.5.1-3.2 1.2-1.5 6.1-1 6.6.8.2 1 .1 1.1-.5.2-.6-.8-1.4-.9-2.3-.3s-1 1-.3 1 .9.9.5 2.2c-.5 2.3-.5 2.3 1.6.4 1.2-1.1 2.2-2.5 2.2-3.3s.4-1.1 1-.8c1.8 1.1-.2-2.9-2.4-4.8-2.9-2.5-6-4.2-5.2-2.9.3.6.2 1.3-.4 1.7-.5.3-1 1.1-1 1.7s.9.3 1.9-.6c1.1-1 2.2-1.3 2.5-.8.3.6.3 1.2-.1 1.5-.5.2-.3.2.4.1.7-.2 1.5.1 1.7.5.3.4-.7.7-2.2.7-1.5-.1-3.2.2-3.7.6-.6.4-1.1-.1-1.2-1.2s.2-2.2.7-2.5.7-1.2.4-2c-.4-.8-1-1.2-1.5-.9-1.8 1.1-4.9 1.3-5.4.3-.4-.5-1.1-.7-1.6-.4-.5.4-.9.1-.9-.5 0-.7.7-1 1.5-.6.8.3 1.5.1 1.5-.4 0-1.7 1.8-1.1 2.4.7.2 1 .4.5.3-1s-.4-2.7-.7-2.5c-.3.1-2.6-1-5.1-2.5-3.7-2.2-5.1-2.5-7-1.8-1.3.5-1.8 1-1 1 .8.1 1.1.4.7.8s-1.6-.3-2.8-1.7c-1.9-2.5-2-2.5-1.5-.2m8.1 1c.3.5-.1.9-.9.9s-1.5-.4-1.5-.9c0-.4.4-.8.9-.8.6 0 1.2.4 1.5.8m5.8 3.6c.7-.4.8-.2.4.5-.9 1.3-2.6.5-2.5-1.2 0-.9.2-.8.6.1.2.6 1 .9 1.5.6m-7.5 1.3c-.4.3-.7 0-.7-.7s.3-1 .7-.7c.3.4.3 1 0 1.4M55 16.5c0 .3-.2.5-.5.5s-.5-.2-.5-.5.2-.5.5-.5.5.2.5.5m-8 1c0 .3-.2.5-.5.5s-.5-.2-.5-.5.2-.5.5-.5.5.2.5.5m-9 2c0 .3-.2.5-.5.5s-.5-.2-.5-.5.2-.5.5-.5.5.2.5.5m12 4c0 .3-.2.5-.5.5s-.5-.2-.5-.5.2-.5.5-.5.5.2.5.5m6.5.5c.3.5.4 1 .1 1s-.8-.5-1.1-1c-.3-.6-.4-1-.1-1s.8.4 1.1 1M49 25.5c0 .3-.2.5-.5.5s-.5-.2-.5-.5.2-.5.5-.5.5.2.5.5M42.5 27c.3.6-.1.7-.9.4-1.8-.7-2.1-1.4-.7-1.4.6 0 1.3.4 1.6 1m6.5.5c0 .3-.2.5-.5.5s-.5-.2-.5-.5.2-.5.5-.5.5.2.5.5m-3 3c0 .3-.2.5-.5.5s-.5-.2-.5-.5.2-.5.5-.5.5.2.5.5m3 0c0 .3-.2.5-.5.5s-.5-.2-.5-.5.2-.5.5-.5.5.2.5.5m6 0c0 .3-.2.5-.5.5s-.5-.2-.5-.5.2-.5.5-.5.5.2.5.5m-5 4c0 .3-.2.5-.5.5s-.5-.2-.5-.5.2-.5.5-.5.5.2.5.5m-8 1.9c0 .3-.5.8-1.2 1.2s-.8.3-.4-.4c.7-1.2 1.6-1.6 1.6-.8m14 .1c0 .3-.2.5-.5.5s-.5-.2-.5-.5.2-.5.5-.5.5.2.5.5m-8 2c0 .3-.2.5-.5.5s-.5-.2-.5-.5.2-.5.5-.5.5.2.5.5m-3 2c0 .3-.2.5-.5.5s-.5-.2-.5-.5.2-.5.5-.5.5.2.5.5m12 2c0 .3-.2.5-.5.5s-.5-.2-.5-.5.2-.5.5-.5.5.2.5.5m-13.3 5c0 .8-.4 1.5-.9 1.5s-.6.6-.2 1.2c.5 1 .4 1-.6.1-1.1-1-1.1-1.5 0-2.8 1.5-1.9 1.7-1.9 1.7 0m-2.7 8c0 .3-.2.5-.5.5s-.5-.2-.5-.5.2-.5.5-.5.5.2.5.5"/><path d="M34.5 12c-.3.6.1.7.9.4 1.8-.7 2.1-1.4.7-1.4-.6 0-1.3.4-1.6 1M69 27.5c0 .3.2.5.5.5s.5-.2.5-.5-.2-.5-.5-.5-.5.2-.5.5M59.5 30c-.3.6.1.7.9.4 1.8-.7 2.1-1.4.7-1.4-.6 0-1.3.4-1.6 1m-6 10c-.4.6-1.1.8-1.6.5s-.6.1-.3.9c.8 2.1 1.1 2 2.4-.4 1.1-2 .6-2.9-.5-1M51 44.5c0 .3.2.5.5.5s.5-.2.5-.5-.2-.5-.5-.5-.5.2-.5.5M44 53c0 .5.5 1 1 1 .6 0 1-.5 1-1 0-.6-.4-1-1-1-.5 0-1 .4-1 1m-2 .5c0 .3.2.5.5.5s.5-.2.5-.5-.2-.5-.5-.5-.5.2-.5.5M42 66c0 .7.3 1 .7.7.3-.4.3-1 0-1.4-.4-.3-.7 0-.7.7m2 1c0 .7.3 1 .7.7.3-.4.3-1 0-1.4-.4-.3-.7 0-.7.7"/></g><path fill="#8080BF" d="M40 10.5c0 .3.2.5.5.5s.5-.2.5-.5-.2-.5-.5-.5-.5.2-.5.5"/><path fill="#FFBF80" fill-opacity=".4" d="M19 11.5c0 .3.2.5.5.5s.5-.2.5-.5-.2-.5-.5-.5-.5.2-.5.5m-8 2c0 .3.2.5.5.5s.5-.2.5-.5-.2-.5-.5-.5-.5.2-.5.5m11 3c0 .3.2.5.5.5s.5-.2.5-.5-.2-.5-.5-.5-.5.2-.5.5m-16 1c0 .3.2.5.5.5s.5-.2.5-.5-.2-.5-.5-.5-.5.2-.5.5m1 13c0 .3.2.5.5.5s.5-.2.5-.5-.2-.5-.5-.5-.5.2-.5.5"/><path fill="#BFBFFF" d="M37 11.5c0 .3.2.5.5.5s.5-.2.5-.5-.2-.5-.5-.5-.5.2-.5.5m3.8.2c.7.3 1.6.2 1.9-.1.4-.3-.2-.6-1.3-.5-1.1 0-1.4.3-.6.6M53 15.5c0 .3.2.5.5.5s.5-.2.5-.5-.2-.5-.5-.5-.5.2-.5.5m-20 4c0 .3.2.5.5.5s.5-.2.5-.5-.2-.5-.5-.5-.5.2-.5.5m23 1c0 .3.2.5.5.5s.5-.2.5-.5-.2-.5-.5-.5-.5.2-.5.5M33 23c0 .7.3 1 .7.7.3-.4.3-1 0-1.4-.4-.3-.7 0-.7.7m0 2.5c0 .3.2.5.5.5s.5-.2.5-.5-.2-.5-.5-.5-.5.2-.5.5m6 13c0 .3.2.5.5.5s.5-.2.5-.5-.2-.5-.5-.5-.5.2-.5.5m22 .5c0 .7.3 1 .7.7.3-.4.3-1 0-1.4-.4-.3-.7 0-.7.7m3-.5c0 .3.2.5.5.5s.5-.2.5-.5-.2-.5-.5-.5-.5.2-.5.5m-9 1c0 .3.2.5.5.5s.5-.2.5-.5-.2-.5-.5-.5-.5.2-.5.5m-16 6c0 .3.2.5.5.5s.5-.2.5-.5-.2-.5-.5-.5-.5.2-.5.5m11 4c0 .3.2.5.5.5s.5-.2.5-.5-.2-.5-.5-.5-.5.2-.5.5m-11 3c0 .3.2.5.5.5s.5-.2.5-.5-.2-.5-.5-.5-.5.2-.5.5"/><path fill="#BF8040" fill-opacity=".7" d="M11 12.5c0 .3.2.5.5.5s.5-.2.5-.5-.2-.5-.5-.5-.5.2-.5.5m1 7c0 .3.2.5.5.5s.5-.2.5-.5-.2-.5-.5-.5-.5.2-.5.5"/><path fill="#FFBF40" fill-opacity=".4" d="M16 12.5c0 .3.2.5.5.5s.5-.2.5-.5-.2-.5-.5-.5-.5.2-.5.5m-6 11c0 .3.2.5.5.5s.5-.2.5-.5-.2-.5-.5-.5-.5.2-.5.5"/><path fill="#FF8000" fill-opacity=".9" d="M24 12.5c0 .3.2.5.5.5s.5-.2.5-.5-.2-.5-.5-.5-.5.2-.5.5M8.5 23c.3.5.8 1 1.1 1s.2-.5-.1-1c-.3-.6-.8-1-1.1-1s-.2.4.1 1"/><path fill="#FFFFBF" d="M35 12.5c0 .3.2.5.5.5s.5-.2.5-.5-.2-.5-.5-.5-.5.2-.5.5m-2 1c0 .3.2.5.5.5s.5-.2.5-.5-.2-.5-.5-.5-.5.2-.5.5m1 2c0 .3.2.5.5.5s.5-.2.5-.5-.2-.5-.5-.5-.5.2-.5.5m-3 5c0 .3.2.5.5.5s.5-.2.5-.5-.2-.5-.5-.5-.5.2-.5.5m-1 3c0 .3.2.5.5.5s.5-.2.5-.5-.2-.5-.5-.5-.5.2-.5.5m25 0c0 .3.2.5.5.5s.5-.2.5-.5-.2-.5-.5-.5-.5.2-.5.5M32.5 27c.3.5.8 1 1.1 1 .2 0 .4-.5.4-1 0-.6-.5-1-1.1-1-.5 0-.7.4-.4 1m28.5-.5c0 .3.2.5.5.5s.5-.2.5-.5-.2-.5-.5-.5-.5.2-.5.5m-19 1c0 .3.2.5.5.5s.5-.2.5-.5-.2-.5-.5-.5-.5.2-.5.5m6 0c0 .3.2.5.5.5s.5-.2.5-.5-.2-.5-.5-.5-.5.2-.5.5m0 3c0 .3.2.5.5.5s.5-.2.5-.5-.2-.5-.5-.5-.5.2-.5.5m3 9c0 .3.2.5.5.5s.5-.2.5-.5-.2-.5-.5-.5-.5.2-.5.5m-7 1c0 .3.2.5.5.5s.5-.2.5-.5-.2-.5-.5-.5-.5.2-.5.5m10 0c0 .3.2.5.5.5s.5-.2.5-.5-.2-.5-.5-.5-.5.2-.5.5m-12 8c0 .3.2.5.5.5s.5-.2.5-.5-.2-.5-.5-.5-.5.2-.5.5m-1 17c0 .3.2.5.5.5s.5-.2.5-.5-.2-.5-.5-.5-.5.2-.5.5"/><path fill="#FF4000" d="M24 13.9c0 .6.4 1.3 1 1.6s.7-.1.4-.9c-.7-1.8-1.4-2.1-1.4-.7M16.5 15c.3.5.8 1 1.1 1s.2-.5-.1-1c-.3-.6-.8-1-1.1-1s-.2.4.1 1m5.8 3.7c.4.3 1 .3 1.4 0 .3-.4 0-.7-.7-.7s-1 .3-.7.7M19.2 24c-.7 1.1-1 2-.6 2 .7 0 3.4-2.7 3.4-3.4 0-1.3-1.6-.5-2.8 1.4M16 27.5c0 .3.2.5.5.5s.5-.2.5-.5-.2-.5-.5-.5-.5.2-.5.5"/><path fill="#FF8040" fill-opacity=".7" d="M8.5 15c.3.5.8 1 1.1 1s.2-.5-.1-1c-.3-.6-.8-1-1.1-1s-.2.4.1 1M22 17.5c0 .3.2.5.5.5s.5-.2.5-.5-.2-.5-.5-.5-.5.2-.5.5m-7 2c0 .3.2.5.5.5s.5-.2.5-.5-.2-.5-.5-.5-.5.2-.5.5m2 5c0 .3.2.5.5.5s.5-.2.5-.5-.2-.5-.5-.5-.5.2-.5.5m1 3c0 .3.2.5.5.5s.5-.2.5-.5-.2-.5-.5-.5-.5.2-.5.5m-3 2c0 .3.2.5.5.5s.5-.2.5-.5-.2-.5-.5-.5-.5.2-.5.5"/><path fill="#BF4000" fill-opacity=".9" d="M8.4 15.2c-.4.7-.3.8.4.4 1.2-.7 1.6-1.6.8-1.6-.3 0-.8.5-1.2 1.2M23 16.5c0 .3.2.5.5.5s.5-.2.5-.5-.2-.5-.5-.5-.5.2-.5.5m-9.6 1.7c-.4.7-.3.8.4.4 1.2-.7 1.6-1.6.8-1.6-.3 0-.8.5-1.2 1.2m-3 3c-.3.4.2.8 1 .8s1.7-.4 2-.8c.3-.5-.2-.9-1-.9s-1.7.4-2 .9m10.6-.7c0 .3.2.5.5.5s.5-.2.5-.5-.2-.5-.5-.5-.5.2-.5.5M8.5 31c-.3.5-.2 1 .4 1 .5 0 1.3-.5 1.6-1 .3-.6.2-1-.4-1-.5 0-1.3.4-1.6 1"/><path fill="#FFBFBF" d="M32.5 15c.3.5.8 1 1.1 1 .2 0 .4-.5.4-1 0-.6-.5-1-1.1-1-.5 0-.7.4-.4 1M31 22.5c0 .3.2.5.5.5s.5-.2.5-.5-.2-.5-.5-.5-.5.2-.5.5"/><path fill="#BF4040" fill-opacity=".7" d="M6 16.5c0 .3.2.5.5.5s.5-.2.5-.5-.2-.5-.5-.5-.5.2-.5.5m-1 8c0 .3.2.5.5.5s.5-.2.5-.5-.2-.5-.5-.5-.5.2-.5.5"/><path fill="#BF8000" fill-opacity=".8" d="M25 16.5c0 .3.2.5.5.5s.5-.2.5-.5-.2-.5-.5-.5-.5.2-.5.5"/><path fill="#BFFFFF" d="M44 17c0 .7.3 1 .7.7.3-.4.3-1 0-1.4-.4-.3-.7 0-.7.7m2 .5c0 .3.2.5.5.5s.5-.2.5-.5-.2-.5-.5-.5-.5.2-.5.5m-9 2c0 .3.2.5.5.5s.5-.2.5-.5-.2-.5-.5-.5-.5.2-.5.5m16 1c0 .3.2.5.5.5s.5-.2.5-.5-.2-.5-.5-.5-.5.2-.5.5m-21.7 3c-.8.9-.9 1.6-.3 2 .6.3 1.3-.1 1.6-1 .9-2.1.2-2.6-1.3-1m17.7 0c0 .3.2.5.5.5s.5-.2.5-.5-.2-.5-.5-.5-.5.2-.5.5m7 1c0 .3.2.5.5.5s.5-.2.5-.5-.2-.5-.5-.5-.5.2-.5.5m-8 1c0 .3.2.5.5.5s.5-.2.5-.5-.2-.5-.5-.5-.5.2-.5.5m-8 1c0 .3.2.5.5.5s.5-.2.5-.5-.2-.5-.5-.5-.5.2-.5.5m5 4c0 .3.2.5.5.5s.5-.2.5-.5-.2-.5-.5-.5-.5.2-.5.5m13 5c0 .3.2.5.5.5s.5-.2.5-.5-.2-.5-.5-.5-.5.2-.5.5m-11 3c0 .3.2.5.5.5s.5-.2.5-.5-.2-.5-.5-.5-.5.2-.5.5m5 0c0 .3.2.5.5.5s.5-.2.5-.5-.2-.5-.5-.5-.5.2-.5.5m-4 8c0 .3.2.5.5.5s.5-.2.5-.5-.2-.5-.5-.5-.5.2-.5.5"/><path fill="#BF8000" fill-opacity=".7" d="M16 17.5c0 .3.2.5.5.5s.5-.2.5-.5-.2-.5-.5-.5-.5.2-.5.5"/><path fill="#400040" d="M67 17.5c0 .3.2.5.5.5s.5-.2.5-.5-.2-.5-.5-.5-.5.2-.5.5M24.4 33.2c-.4.7-.3.8.4.4s1.2-.9 1.2-1.2c0-.8-.9-.4-1.6.8M22 35.5c0 .3.2.5.5.5s.5-.2.5-.5-.2-.5-.5-.5-.5.2-.5.5m2 1c0 .3.2.5.5.5s.5-.2.5-.5-.2-.5-.5-.5-.5.2-.5.5m-2 1c0 .3.2.5.5.5s.5-.2.5-.5-.2-.5-.5-.5-.5.2-.5.5"/><path fill="#BFBF40" fill-opacity=".6" d="M10 20.5c0 .3.2.5.5.5s.5-.2.5-.5-.2-.5-.5-.5-.5.2-.5.5"/><path fill="#BF80BF" fill-opacity=".1" d="M14 20.5c0 .3.2.5.5.5s.5-.2.5-.5-.2-.5-.5-.5-.5.2-.5.5"/><path fill="#FFBFFF" d="M32.5 21c.3.5.8 1 1.1 1 .2 0 .4-.5.4-1 0-.6-.5-1-1.1-1-.5 0-.7.4-.4 1m8.5 5.5c0 .3.2.5.5.5s.5-.2.5-.5-.2-.5-.5-.5-.5.2-.5.5m13 4c0 .3.2.5.5.5s.5-.2.5-.5-.2-.5-.5-.5-.5.2-.5.5m-5 4c0 .3.2.5.5.5s.5-.2.5-.5-.2-.5-.5-.5-.5.2-.5.5m6 2c0 .3.2.5.5.5s.5-.2.5-.5-.2-.5-.5-.5-.5.2-.5.5m-16 3c0 .3.2.5.5.5s.5-.2.5-.5-.2-.5-.5-.5-.5.2-.5.5"/><path fill="#BF8080" fill-opacity=".1" d="M9 21.5c0 .3.2.5.5.5s.5-.2.5-.5-.2-.5-.5-.5-.5.2-.5.5m4 14c0 .3.2.5.5.5s.5-.2.5-.5-.2-.5-.5-.5-.5.2-.5.5"/><path fill="#FF4000" fill-opacity=".9" d="M23 21.5c0 .3.2.5.5.5s.5-.2.5-.5-.2-.5-.5-.5-.5.2-.5.5"/><path fill="#408080" fill-opacity=".4" d="M29 21.5c0 .3.2.5.5.5s.5-.2.5-.5-.2-.5-.5-.5-.5.2-.5.5"/><path fill="#BFFFBF" d="M30.3 21.7c.4.3 1 .3 1.4 0 .3-.4 0-.7-.7-.7s-1 .3-.7.7m3.7 8.8c0 .3.2.5.5.5s.5-.2.5-.5-.2-.5-.5-.5-.5.2-.5.5"/><path fill="#FFBF40" fill-opacity=".5" d="M7 22.5c0 .3.2.5.5.5s.5-.2.5-.5-.2-.5-.5-.5-.5.2-.5.5"/><path fill="#FF8080" fill-opacity=".4" d="M2.5 25c.3.5.8 1 1.1 1s.2-.5-.1-1c-.3-.6-.8-1-1.1-1s-.2.4.1 1"/><path fill="#FF8000" fill-opacity=".8" d="M15 26.5c0 .3.2.5.5.5s.5-.2.5-.5-.2-.5-.5-.5-.5.2-.5.5m-3 2c0 .3.2.5.5.5s.5-.2.5-.5-.2-.5-.5-.5-.5.2-.5.5m-4 2c0 .3.2.5.5.5s.5-.2.5-.5-.2-.5-.5-.5-.5.2-.5.5"/><path fill="#000040" fill-opacity=".8" d="M26 26.5c0 .3.2.5.5.5s.5-.2.5-.5-.2-.5-.5-.5-.5.2-.5.5"/><path fill="#400000" d="M28 27.7c0 1.3.5 2.3 1 2.3 1.3 0 1.3-1.1 0-3-.8-1.2-1-1.1-1 .7m1.7 5.9c-.8.8.1 2.4 1.4 2.4.5 0 .9-.7.9-1.5 0-1.5-1.2-2-2.3-.9M23 35c0 .5.7 1 1.5 1s1.5-.5 1.5-1c0-.6-.7-1-1.5-1s-1.5.4-1.5 1m-6.7.7c.4.3 1 .3 1.4 0 .3-.4 0-.7-.7-.7s-1 .3-.7.7m4.7.8c0 .3.2.5.5.5s.5-.2.5-.5-.2-.5-.5-.5-.5.2-.5.5m-2 1c0 .3.2.5.5.5s.5-.2.5-.5-.2-.5-.5-.5-.5.2-.5.5"/><path fill="#8080BF" fill-opacity=".1" d="M79 26.5c0 .3.2.5.5.5s.5-.2.5-.5-.2-.5-.5-.5-.5.2-.5.5m1 3c0 .3.2.5.5.5s.5-.2.5-.5-.2-.5-.5-.5-.5.2-.5.5m-63 4c0 .3.2.5.5.5s.5-.2.5-.5-.2-.5-.5-.5-.5.2-.5.5m64 1c0 .3.2.5.5.5s.5-.2.5-.5-.2-.5-.5-.5-.5.2-.5.5"/><path fill="#400000" fill-opacity=".7" d="M24 28.5c0 .3.2.5.5.5s.5-.2.5-.5-.2-.5-.5-.5-.5.2-.5.5"/><path fill="#404080" d="M31 28.5c0 .3.2.5.5.5s.5-.2.5-.5-.2-.5-.5-.5-.5.2-.5.5"/><path fill="#BF4040" fill-opacity=".6" d="M11 29.5c0 .3.2.5.5.5s.5-.2.5-.5-.2-.5-.5-.5-.5.2-.5.5"/><path fill="#404000" fill-opacity=".7" d="M23 29.5c0 .3.2.5.5.5s.5-.2.5-.5-.2-.5-.5-.5-.5.2-.5.5"/><path fill="#FF8000" fill-opacity=".7" d="M10 31.5c0 .3.2.5.5.5s.5-.2.5-.5-.2-.5-.5-.5-.5.2-.5.5"/><path fill="#804040" fill-opacity=".5" d="M16 34.5c0 .3.2.5.5.5s.5-.2.5-.5-.2-.5-.5-.5-.5.2-.5.5"/><path fill="#400000" fill-opacity=".8" d="M17 34.5c0 .3.2.5.5.5s.5-.2.5-.5-.2-.5-.5-.5-.5.2-.5.5"/><path fill="#404000" d="M15 37.5c0 .3.2.5.5.5s.5-.2.5-.5-.2-.5-.5-.5-.5.2-.5.5"/><path fill="#404080" fill-opacity=".4" d="M78 53.5c0 .3.2.5.5.5s.5-.2.5-.5-.2-.5-.5-.5-.5.2-.5.5"/></svg>